<svg width="13" height="15" viewBox="0 0 13 15" fill="none" xmlns="http://www.w3.org/2000/svg">
<path d="M12.5133 9.84333L12.9833 7.12333C13.0109 6.96391 13.0033 6.80039 12.9611 6.6442C12.9189 6.48802 12.8431 6.34294 12.7389 6.21912C12.6348 6.09529 12.5049 5.99572 12.3582 5.92736C12.2116 5.85899 12.0518 5.82349 11.89 5.82333H8.436C8.35539 5.82335 8.27575 5.80582 8.2026 5.77196C8.12944 5.73809 8.06454 5.68871 8.0124 5.62724C7.96025 5.56577 7.92211 5.49369 7.90063 5.41599C7.87915 5.3383 7.87484 5.25686 7.888 5.17733L8.33 2.48067C8.40173 2.04282 8.38129 1.59483 8.27 1.16533C8.22238 0.987867 8.13067 0.82532 8.00339 0.692797C7.87611 0.560275 7.7174 0.462078 7.542 0.407333L7.44533 0.376C7.22678 0.305793 6.98963 0.322017 6.78267 0.421333C6.556 0.530666 6.39067 0.73 6.32933 0.966666L6.012 2.18933C5.91098 2.57842 5.76417 2.95415 5.57467 3.30867C5.298 3.82667 4.87 4.242 4.42467 4.62533L3.46533 5.452C3.33225 5.56701 3.2283 5.71191 3.16202 5.87484C3.09574 6.03777 3.069 6.21408 3.084 6.38933L3.62533 12.6513C3.64919 12.9283 3.77603 13.1862 3.98079 13.3742C4.18556 13.5622 4.45337 13.6665 4.73133 13.6667H7.83C10.1513 13.6667 12.132 12.0493 12.5133 9.84333Z" fill="#246BFD"/>
<path fill-rule="evenodd" clip-rule="evenodd" d="M0.978667 5.32333C1.10751 5.3177 1.23354 5.36207 1.33044 5.44716C1.42734 5.53226 1.48761 5.65151 1.49867 5.78L2.14533 13.2707C2.15629 13.3822 2.14439 13.4948 2.11036 13.6016C2.07633 13.7084 2.0209 13.8071 1.94743 13.8918C1.87396 13.9764 1.78401 14.0452 1.68307 14.094C1.58213 14.1427 1.47231 14.1703 1.36033 14.1752C1.24836 14.18 1.13656 14.162 1.03178 14.1222C0.927003 14.0824 0.831436 14.0216 0.750919 13.9437C0.670402 13.8657 0.606626 13.7721 0.563484 13.6687C0.520342 13.5652 0.498741 13.4541 0.5 13.342V5.82267C0.500055 5.69379 0.549871 5.56991 0.639056 5.47687C0.728241 5.38384 0.849906 5.32883 0.978667 5.32333Z" fill="#246BFD"/>
</svg>
