<svg width="95" height="102" viewBox="0 0 95 102" fill="none" xmlns="http://www.w3.org/2000/svg">
<path d="M50.7847 34.3707L49.5136 32.2037C49.4623 32.0475 49.361 31.8964 49.2058 31.7478C48.5478 31.1164 47.7433 30.6566 47.1653 29.9292C47.089 29.8332 46.9551 29.787 46.86 29.7038C46.5935 29.472 46.2983 29.2632 46.0756 28.9917C45.2811 28.0248 44.1501 28.0863 43.3782 29.0801C43.1592 29.3631 42.924 29.6334 42.7076 29.919C42.306 30.4492 41.9169 30.9896 41.5178 31.5211C40.9273 32.3062 40.3317 33.0874 39.6874 33.9378C39.4472 33.5549 39.2733 33.2577 39.0806 32.9747C38.7779 32.5316 38.4676 32.0949 38.1498 31.6633C37.5643 30.8718 36.985 30.0739 36.3707 29.3055C36.1681 29.0532 35.874 28.8713 35.6026 28.6856C35.3048 28.482 34.9732 28.5025 34.6617 28.6523C34.0562 28.9443 33.4356 29.212 32.8651 29.5655C32.0519 30.0701 31.2825 30.6464 30.4893 31.1843C30.199 31.3815 29.8887 31.5467 29.6022 31.7478C29.078 32.1166 28.5651 32.5021 28.0484 32.8812C28.2373 32.2754 28.6527 31.8771 29.053 31.4584C29.7511 30.7284 30.3241 29.8805 30.9184 29.0711C31.3375 28.5012 31.7792 27.8942 32.0657 27.209C32.2008 26.8863 32.1495 26.324 31.863 26.2792C31.28 26.187 30.747 25.8848 30.1027 25.9949C29.2494 26.1409 28.3699 26.1294 27.4829 26.1857C27.7193 25.8489 27.8932 25.4468 28.1922 25.2073C28.754 24.7565 29.0555 24.1417 29.3795 23.5372C29.6598 23.016 29.4058 22.3564 28.9079 22.3065C28.0609 22.2207 27.2076 22.1912 26.3581 22.1362C26.0829 22.1182 25.8076 22.1093 25.5336 22.0773C24.564 21.9633 23.5969 21.7955 22.6248 21.734C21.42 21.6572 20.2064 21.711 19.0016 21.629C17.3176 21.515 15.6349 21.4689 13.9484 21.5189C13.792 21.524 13.6356 21.5048 13.4792 21.4971C13.468 21.4407 13.4567 21.3831 13.4467 21.3268C13.7294 21.1923 14.0084 21.045 14.2975 20.9259C14.6002 20.8017 14.918 20.7159 15.2208 20.5916C16.2717 20.1613 17.3114 19.7003 18.3698 19.2905C19.3794 18.8986 20.4141 18.5771 21.4238 18.1852C22.6699 17.7024 23.9085 17.1965 25.1383 16.6702C25.7626 16.4025 26.3769 16.1002 26.9612 15.7519C27.4616 15.4548 27.5679 15.1384 27.3903 14.5634C27.1038 13.6387 26.6096 12.8396 25.8852 12.198C25.4648 11.8253 25.0495 11.4462 24.6091 11.0492C25.1233 10.98 25.5336 10.9083 25.9465 10.8724C26.3994 10.8327 26.8711 10.7367 27.3052 10.8225C28.2686 11.0108 28.7928 10.2833 29.4871 9.96699C29.3795 9.3292 29.1168 8.94243 28.6714 8.61585C28.191 8.26366 27.7994 7.78724 27.359 7.37486C26.8999 6.94326 26.4407 6.51039 25.9603 6.10312C24.9919 5.28092 24.011 4.47664 23.0352 3.66468C23.5043 3.65443 23.9397 3.67748 24.3351 3.81452C25.1433 4.09627 25.9553 4.30759 26.8048 4.44718C27.7631 4.60471 28.6714 5.00813 29.6573 5.1362C30.5105 5.24634 31.3325 5.59597 32.1733 5.82009C32.6725 5.95328 33.1842 6.03653 33.6859 6.1646C34.2188 6.30035 34.738 6.53472 35.2773 6.59363C35.7364 6.64358 36.2832 6.57186 36.5371 6.09032C37.0726 5.076 37.5993 4.04633 37.6406 2.85015C37.6494 2.58121 37.7357 2.36349 37.9221 2.23542C38.2587 2.60298 38.5827 2.91163 38.8542 3.26382C39.2107 3.72743 39.526 4.22306 39.8588 4.70588C40.1603 5.14516 40.4581 5.58572 40.7609 6.02372C41.0536 6.44635 41.8606 6.74347 42.3573 6.61668C42.8402 6.49374 43.3194 6.35798 43.7935 6.2107C44.1914 6.08647 44.603 6.00067 44.9746 5.79319C45.3649 5.57548 45.7465 5.34111 46.1481 5.10546C46.1744 5.17078 46.2345 5.24506 46.2232 5.30269C46.0843 5.98146 46.0155 6.67559 45.6064 7.27624C45.3937 7.58873 45.2711 7.9691 45.1247 8.32513C44.8257 9.05385 44.5555 9.79665 44.2389 10.5177C44.045 10.9595 43.9562 11.3924 44.0813 11.8522C44.8157 12.2108 45.2148 12.1634 45.4087 11.5948C45.8191 10.3922 46.4659 9.29718 46.8725 8.09589C46.9714 7.80389 46.9664 7.4517 47.129 7.21221C47.5844 6.53728 47.6482 5.71251 48.0048 5.00172C48.1374 4.7379 48.2024 4.39467 48.1762 4.09883C48.0836 3.0397 47.6933 2.60938 46.81 3.09093C46.6098 3.19978 46.3984 3.28815 46.1982 3.39701C45.7328 3.64931 45.2849 3.94259 44.8019 4.1539C43.9499 4.52787 43.0779 4.85444 42.1684 5.21944C42.0883 5.13236 41.9394 5.04143 41.8956 4.91336C41.748 4.48817 41.484 4.16031 41.1887 3.83757C40.8322 3.44696 40.5144 3.02049 40.1891 2.60042C39.9564 2.30074 39.745 1.98312 39.5135 1.68088C39.2683 1.3607 38.9906 1.06486 38.7641 0.731883C38.3137 0.067201 37.6469 -0.171008 36.9162 0.126113C36.8111 0.168376 36.6823 0.275955 36.6585 0.37713C36.5234 0.94704 36.382 1.52079 36.3069 2.10095C36.1756 3.1255 35.9616 4.11292 35.3811 5.02478C35.0621 4.97483 34.7355 4.9505 34.4228 4.87109C33.1579 4.55476 31.898 4.21922 30.6357 3.89905C30.4417 3.85038 30.2316 3.86575 30.0401 3.81068C28.9517 3.49947 27.872 3.14984 26.7772 2.86296C25.2434 2.46082 23.6983 2.10095 22.1582 1.72442C21.5251 1.56946 20.8933 1.40937 20.2565 1.27106C19.8223 1.17756 19.5246 1.33381 19.3081 1.72186C19.0216 2.23414 19.1167 2.65549 19.6997 3.02561C20.7194 3.67108 21.6352 4.45871 22.5823 5.20023C23.119 5.6203 23.5469 6.20046 24.1124 6.56161C24.9819 7.11615 25.6075 7.93324 26.3932 8.57103C26.6421 8.77338 26.8611 9.01287 27.2026 9.33816C26.9036 9.30999 26.7572 9.27669 26.6133 9.28694C25.8652 9.34072 25.1133 9.48032 24.3701 9.44062C23.8384 9.41116 23.378 9.49441 22.9276 9.7339C22.4834 9.97083 22.312 10.2833 22.4484 10.7456C22.5322 11.0287 22.6899 11.3232 22.8951 11.5282C23.6307 12.2633 24.3814 12.9843 25.1646 13.6644C25.5336 13.9845 25.65 14.3457 25.6613 14.8682C25.1646 15.0219 24.6866 15.1628 24.2137 15.319C23.9522 15.4048 23.6995 15.5201 23.4418 15.6161C23.2329 15.693 23.0189 15.7545 22.8112 15.8351C22.581 15.9235 22.3546 16.026 22.1269 16.122C21.9229 16.2078 21.7203 16.3013 21.5126 16.3769C21.2761 16.4627 21.0272 16.5139 20.7932 16.6087C19.6497 17.0697 18.5049 17.5295 17.3702 18.0123C16.3067 18.4644 15.2033 18.8051 14.1986 19.4224C13.6581 19.7553 12.9838 19.8578 12.3745 20.0755C12.2131 20.1332 12.0692 20.2407 11.9128 20.3163C11.6901 20.4239 11.4712 20.5686 11.2347 20.6147C10.5654 20.7453 10.0162 21.1206 9.50321 21.5253C9.27176 21.7071 9.1554 22.0721 9.04906 22.3782C8.96523 22.619 9.08909 22.8738 9.33681 22.9328C9.82474 23.0493 10.3264 23.1851 10.8206 23.1748C11.4637 23.162 12.103 23.0134 12.7448 22.9276C12.8687 22.911 13.0151 22.8764 13.1202 22.9225C13.6219 23.1454 14.1436 23.0813 14.6653 23.0826C15.4447 23.0839 16.2254 23.0954 17.0036 23.1185C18.1371 23.1518 19.2719 23.1594 20.4004 23.2542C21.2111 23.3234 22.0193 23.203 22.8438 23.4476C23.5206 23.6487 24.2925 23.5001 25.0207 23.5372C25.7826 23.5757 26.5495 23.5936 27.3302 23.8075C27.2289 23.9765 27.1876 24.12 27.0938 24.1904C26.4394 24.6783 26.1705 25.5275 25.4761 25.9795C25.0807 26.237 24.8756 26.6199 24.9969 27.104C25.132 27.6419 25.4999 27.9134 26.0428 27.9288C26.2693 27.9352 26.4957 27.9416 26.7222 27.9288C27.3202 27.898 27.9183 27.8519 28.5175 27.825C28.9154 27.8071 29.3132 27.8122 29.8612 27.8045C29.1468 28.7817 28.5038 29.7333 27.7856 30.6208C27.2301 31.3072 26.5646 31.8976 25.9778 32.5585C24.7479 33.9467 23.4168 35.2262 22.0618 36.48C21.7003 36.8142 21.4963 37.1882 21.4625 37.6813C21.425 38.2089 21.6102 38.474 22.1106 38.4714C22.3208 38.4702 22.5473 38.3728 22.7362 38.2627C22.9751 38.1244 23.164 37.8926 23.4068 37.7658C24.3201 37.2868 25.0545 36.5107 26.0253 36.1291C26.1129 36.0945 26.1867 36.0048 26.2518 35.9267C26.7647 35.3056 27.4566 34.8458 28.1347 34.5679C29.307 34.0876 30.1728 33.1655 31.2762 32.6033C31.9881 32.2409 32.6024 31.6799 33.2655 31.215C33.5983 30.9819 33.9323 30.7488 34.2839 30.5478C34.8657 30.2148 35.1684 30.243 35.5888 30.7527C36.0492 31.3111 36.4583 31.9143 36.8687 32.5124C37.4392 33.3461 37.9709 34.208 38.5564 35.0302C39.197 35.9305 40.3543 35.8563 40.941 34.9124C41.2613 34.3976 41.5578 33.8635 41.9244 33.3845C42.6213 32.4714 43.3769 31.6069 44.0738 30.6951C44.608 29.9971 45.2186 29.9074 45.6927 30.6246C46.3758 31.6594 47.4968 32.1499 48.3301 32.9875C48.7742 33.7457 49.2196 34.5039 49.6637 35.2607C49.8614 35.5988 50.3781 35.6053 50.6571 35.3888C50.9912 35.1288 50.9787 34.7062 50.7822 34.3719L50.7847 34.3707Z" fill="#E9D785"/>
<path d="M60.685 26.9666C60.2834 26.8283 59.8743 26.7053 59.4814 26.5452C59.0173 26.3557 58.5669 26.129 58.1077 25.9267C57.6523 25.7269 57.1869 25.5476 56.734 25.3401C55.9796 24.9943 55.2364 24.6242 54.482 24.2822C53.7501 23.9505 53.017 23.6188 52.2701 23.3281C51.7058 23.1091 51.1053 22.9913 50.6386 22.552C50.5335 22.4534 50.3784 22.3907 50.2358 22.3574C49.4776 22.1806 48.8483 21.6671 48.0601 21.5428C47.5984 21.4711 47.3244 20.914 47.4558 20.5593C47.676 19.9663 48.0363 19.8472 48.6531 20.1072C49.4576 20.4478 50.277 20.7488 51.0853 21.0818C51.3392 21.1868 51.5669 21.3584 51.8209 21.4622C52.6592 21.8054 53.5074 22.1256 54.3456 22.4688C54.6209 22.5815 54.8786 22.7416 55.1451 22.876C55.3903 23.0003 55.633 23.1296 55.8845 23.2385C56.694 23.5907 57.5585 23.8135 58.2816 24.3642C58.4793 24.5141 58.732 24.5909 58.9647 24.6869C59.4739 24.897 59.9881 25.0968 60.4998 25.3017C61.6659 25.7679 62.8344 26.2289 63.9954 26.7066C64.2206 26.8001 64.4496 26.9294 64.6247 27.0985C65.0314 27.493 65.0889 27.7389 64.8825 28.1141C64.6823 28.4804 64.4696 28.7352 63.9391 28.6814C63.1409 28.5995 62.3252 28.7135 61.517 28.7045C61.1166 28.7007 60.7188 28.5995 60.3184 28.5585C59.8956 28.515 59.4614 28.4215 59.0473 28.4714C58.0877 28.5892 57.1481 28.5201 56.196 28.383C55.3778 28.2652 54.5421 28.2691 53.7151 28.205C53.3923 28.1807 53.0733 28.0757 52.753 28.0808C52.3113 28.0859 51.8647 28.1282 51.4356 28.2281C51.3317 28.2524 51.2291 28.5662 51.2341 28.7442C51.2542 29.5446 51.2954 30.3451 51.363 31.1429C51.4368 32.0138 51.5544 32.8821 51.6408 33.7517C51.6583 33.9272 51.5982 34.1103 51.6057 34.2883C51.6207 34.5906 51.6583 34.8928 51.6933 35.1938C51.7021 35.2693 51.7684 35.3488 51.7534 35.4141C51.6132 36.0275 51.8697 36.559 52.0636 37.1071C52.1837 37.4478 52.0499 37.7347 51.7621 37.8999C51.4869 38.0587 51.1591 38.0882 50.9214 37.8307C50.7375 37.631 50.5248 37.3851 50.4835 37.1328C50.2383 35.6407 49.9192 34.1603 49.8992 32.6337C49.8892 31.864 49.7253 31.0981 49.6828 30.3271C49.6315 29.3781 49.6115 28.4253 49.6327 27.475C49.6377 27.2611 49.8166 26.9512 49.9993 26.8616C50.3997 26.6656 50.8576 26.4594 51.2829 26.4774C53.0107 26.5516 54.7347 26.722 56.4613 26.8334C57.6048 26.9077 58.7495 26.9384 59.8943 26.9973C60.142 27.0101 60.386 27.0639 60.6325 27.0985C60.6512 27.0537 60.67 27.0089 60.6875 26.964L60.685 26.9666Z" fill="#E9D785"/>
<path d="M78.474 52.246L75.674 53.601L74.4291 54.2029L73.1267 54.8317L67.4154 57.5967L67.2378 57.6813C67.2378 57.6813 67.3166 57.8452 67.4379 58.1385C67.5718 58.4612 67.757 58.9351 67.9496 59.5255C68.0973 59.9788 68.2512 60.5001 68.3888 61.0713C68.7916 62.7336 69.0644 64.8173 68.7166 66.8715C68.6315 67.3723 68.5101 67.8705 68.3462 68.361C68.2874 68.5326 68.2249 68.7029 68.1561 68.8707C67.9034 69.4931 67.6381 70.0502 67.3679 70.5446C66.9025 71.4039 66.422 72.0801 65.9629 72.6116C65.2735 73.4146 64.6305 73.8885 64.155 74.1613C63.6659 74.4443 63.3568 74.5147 63.3568 74.5147L63.3406 75.6917L63.2592 81.4446L63.253 81.9376L56.5571 82.9392L53.0552 83.463L51.6502 83.6717L45.9489 84.5259L44.5402 84.7347L38.8552 85.5851L38.6775 85.612L37.4139 84.5772L35.4321 82.9571L33.7156 81.5534L31.6413 79.854L30.8656 79.2213C30.8656 79.2213 29.9373 72.6155 31.7351 68.475C31.7476 68.4455 31.7589 68.4173 31.7739 68.3879C31.8427 68.2304 31.9178 68.0754 31.9966 67.9268C32.1317 67.6707 32.3469 67.3479 32.6309 66.965C33.5867 65.6843 35.3283 63.753 37.4664 61.5118C38.0382 60.9112 38.6387 60.2888 39.2618 59.651C40.942 57.931 42.7736 56.0983 44.6128 54.2823C45.2333 53.6701 45.8564 53.0567 46.4731 52.4547C48.3273 50.6374 50.1389 48.8854 51.7516 47.3281C52.6273 46.4854 53.4443 45.7016 54.1775 44.9985C56.1404 43.1133 57.5167 41.8006 57.8382 41.4728C58.0934 41.2115 58.4462 40.9477 58.8629 40.6839C59.2495 40.4392 59.6898 40.1997 60.1553 39.9679C60.6995 39.6964 61.275 39.4365 61.8417 39.1957C63.1917 38.6219 64.4803 38.157 65.0921 37.9163C65.2585 37.8497 65.4687 37.7779 65.7127 37.6985C65.784 37.6755 65.8565 37.6524 65.9291 37.6307C66.3332 37.5039 66.8024 37.3694 67.2878 37.2349C68.9155 36.7841 70.7108 36.3474 70.7108 36.3474L71.3702 37.6973L72.037 39.0612L73.103 41.2422L74.4779 44.0585L74.9446 45.0152L75.5776 46.3087L78.4264 52.1422L78.4752 52.2421L78.474 52.246Z" fill="white"/>
<path d="M78.4259 52.1478C78.2258 52.1171 78.0356 52.1043 77.8705 52.1683C77.2537 52.4078 76.6531 52.1722 76.0426 52.2734C75.5246 52.3579 74.9892 52.3169 74.4537 52.2862C74.4374 52.062 74.4149 51.8392 74.3949 51.6151C74.3761 51.4102 74.3386 51.1976 74.3711 50.9978C74.5425 49.9489 74.6013 48.9013 74.3736 47.8524C74.3511 47.7551 74.3774 47.6475 74.3874 47.5463C74.4199 47.1903 74.4925 46.833 74.485 46.4769C74.485 46.4423 74.485 46.409 74.4825 46.3732C74.585 46.3732 74.6889 46.3757 74.7915 46.3732C75.0542 46.3706 75.3157 46.336 75.5784 46.313L74.9454 45.0195C74.7877 45.0131 74.6326 45.0028 74.4737 44.9926C74.4762 44.6827 74.4775 44.374 74.4775 44.0628L73.1025 41.2466C73.095 41.486 73.0825 41.7268 73.0687 41.9663C73.0099 42.9678 72.9861 43.968 73.0036 44.967C72.557 44.9708 72.1104 44.9772 71.6637 44.9875C70.9243 45.0016 70.1824 45.0682 69.4417 45.0387C68.7424 45.0118 68.053 44.9183 67.3499 44.9183C67.3561 43.6082 67.3824 42.298 67.2911 40.9866C67.2511 40.3808 67.2936 39.7571 67.3036 39.1321C67.4775 39.1398 67.6539 39.1462 67.8278 39.1552C68.2244 39.1693 68.6198 39.2282 69.0151 39.2128C69.9109 39.1795 70.8042 39.086 71.7 39.0681C71.8126 39.0655 71.9264 39.0643 72.039 39.0643L71.3722 37.7003C70.7291 37.7234 70.0861 37.7682 69.443 37.7464C68.7211 37.717 68.0092 37.6196 67.2823 37.626C67.2848 37.498 67.2861 37.3673 67.2898 37.2393C66.8044 37.3737 66.3353 37.5082 65.9311 37.635C65.9311 37.6555 65.9311 37.6785 65.9286 37.699C65.8573 37.7016 65.7873 37.7029 65.7159 37.7029C65.4695 37.781 65.2593 37.854 65.0929 37.9206C64.4799 38.1601 63.1925 38.6263 61.8425 39.2C62.0452 39.2077 62.2491 39.2141 62.4506 39.2192C63.2287 39.232 64.0057 39.2384 64.7814 39.2192C65.1292 39.2115 65.4745 39.1014 65.8223 39.0988C65.8586 39.1616 65.8648 39.2205 65.8748 39.2807C66.0325 40.1836 65.9962 41.0749 65.9436 41.9663C65.8823 42.9781 65.8611 43.986 65.8786 44.9939C64.9202 45.0233 63.9544 44.9747 62.9935 44.9811C62.7671 44.9811 62.5431 45.0208 62.3167 45.0272C61.6661 45.0451 61.0143 45.0707 60.3637 45.0618C60.3174 45.0592 60.2711 45.0579 60.2223 45.0553C60.2286 43.7004 60.2586 42.3441 60.166 40.9866C60.1435 40.6536 60.146 40.3142 60.156 39.971C59.6906 40.2028 59.2502 40.4423 58.8636 40.6869C58.8661 41.1146 58.8436 41.5398 58.8186 41.9663C58.7573 42.9768 58.7335 43.9821 58.7523 44.9875C58.7198 44.9913 58.686 44.9939 58.6509 45.0003C57.7702 45.1616 56.8981 45.1245 56.0274 45.0707C55.4093 45.0336 54.7938 45.008 54.177 45.0028C53.4426 45.7059 52.6269 46.491 51.7511 47.3324C51.7536 47.3465 51.7536 47.3632 51.7548 47.3785C51.7611 47.4554 51.7811 47.5399 51.7586 47.6078C51.5146 48.3736 51.7298 49.1472 51.7198 49.9156C51.7073 50.7224 51.7911 51.5382 51.8049 52.3476C51.4508 52.3681 51.0955 52.3937 50.7389 52.4258C50.6639 52.4334 50.5813 52.4552 50.515 52.4322C49.7668 52.1811 49.0112 52.4014 48.2605 52.3912C47.6662 52.3835 47.0682 52.4283 46.4714 52.4591C45.8546 53.061 45.2328 53.6744 44.611 54.2866C44.6173 54.9756 44.6936 55.6608 44.5985 56.3562C44.4571 57.3936 44.5522 58.4668 44.5785 59.5221C44.581 59.5887 44.581 59.6527 44.5822 59.7193C43.7052 59.6489 42.8482 59.8167 41.9687 59.6899C41.0817 59.5631 40.1658 59.622 39.26 59.6553C38.637 60.2931 38.0365 60.9155 37.4647 61.5161C37.4547 62.6496 37.4347 63.7868 37.4622 64.9228C37.481 65.6054 37.4497 66.2931 37.4259 66.9783C36.1523 66.9745 34.8762 66.9386 33.6013 66.9745C33.2772 66.9822 32.952 66.9809 32.6292 66.9706C32.3439 67.3536 32.13 67.6763 31.9949 67.9324C31.916 68.081 31.841 68.2372 31.7722 68.3935C31.891 68.396 32.0124 68.3999 32.1337 68.4063C33.7877 68.487 35.4454 68.2859 37.0994 68.4229C37.202 68.4332 37.3071 68.4357 37.4109 68.437C37.4172 69.5359 37.4409 70.6373 37.4534 71.7361C37.4609 72.3508 37.4697 72.9656 37.4559 73.5803C37.4522 73.8095 37.4322 74.0401 37.4109 74.2719C36.141 74.268 34.8712 74.2322 33.6025 74.268C32.9557 74.286 32.3089 74.2552 31.6596 74.2322C31.6733 72.808 31.7421 71.3865 31.7509 69.9611C31.7546 69.468 31.7446 68.9762 31.7346 68.4819C29.938 72.6223 30.8651 79.2282 30.8651 79.2282L31.6408 79.8608C31.6483 79.2499 31.7596 78.6339 31.612 78.0166C31.5895 77.9231 31.6308 77.8143 31.6408 77.7118C31.6771 77.3801 31.7459 77.0497 31.7421 76.7206C31.7384 76.3748 31.7196 76.029 31.7021 75.6832C31.846 75.687 31.9886 75.6909 32.135 75.6973C33.7889 75.778 35.4467 75.5769 37.1006 75.7165C37.212 75.7242 37.3233 75.7293 37.4322 75.7293C37.5248 76.9588 37.3458 78.1921 37.5248 79.4152C37.5348 79.4894 37.5348 79.5791 37.506 79.647C37.2408 80.2758 37.3483 80.9213 37.4034 81.5629C36.1761 81.559 34.945 81.5283 33.7164 81.559L35.4329 82.9627C35.9884 82.9563 36.5451 82.9652 37.1006 83.0101C37.1995 83.0178 37.3008 83.0203 37.3996 83.0229C37.3934 83.5428 37.4021 84.0615 37.4134 84.5828L38.677 85.6176L38.8547 85.5907C38.8347 84.707 38.7834 83.8208 38.8146 82.9358C39.2901 82.9089 39.763 82.9166 40.2321 83.0703C40.2547 83.0767 40.2809 83.06 40.3072 83.0575C41.0566 83.0331 41.8098 83.0165 42.5592 82.9793C42.9821 82.9588 43.425 82.8013 43.8203 82.8858C44.0568 82.9371 44.2907 82.9691 44.5259 82.9857C44.5159 83.5697 44.5285 84.155 44.5397 84.7403L45.9485 84.5315C45.9322 84.0077 45.9222 83.4826 45.9384 82.9588C46.1611 82.9396 46.3813 82.9179 46.6015 82.8961C46.8017 82.8769 47.0094 82.8385 47.2046 82.8718C48.2292 83.0472 49.2526 83.1074 50.2773 82.8743C50.3724 82.8513 50.4775 82.8782 50.5763 82.8884C50.9241 82.9217 51.2732 82.996 51.621 82.9883C51.6447 83.2175 51.6448 83.4481 51.6498 83.6773L53.0547 83.4686C53.0547 83.3046 53.0572 83.142 53.0635 82.9781C54.2283 82.9845 55.3918 83.0075 56.5566 82.9448L63.2525 81.9433L63.2588 81.4502H62.9935C62.7671 81.4502 62.5431 81.4899 62.3167 81.4963C61.6661 81.5155 61.0143 81.5398 60.3637 81.5309C60.3237 81.5283 60.2824 81.527 60.2424 81.5245C60.2261 81.0813 60.176 80.6382 60.1473 80.1938C60.101 79.4754 60.2874 78.7454 60.1135 78.0166C60.0897 77.9231 60.1323 77.8143 60.1423 77.7118C60.1785 77.3801 60.2474 77.0497 60.2436 76.7206C60.2374 76.3505 60.2173 75.9816 60.1986 75.6115C60.9492 75.6179 61.7011 75.673 62.4506 75.6858C62.7483 75.6896 63.0423 75.6935 63.3401 75.696L63.3564 74.5191C63.3564 74.5191 63.6654 74.4486 64.1546 74.1656C63.768 74.1592 63.3801 74.1528 62.9948 74.1553C62.7683 74.1579 62.5444 74.1963 62.3179 74.2027C61.6674 74.2194 61.0155 74.2437 60.365 74.236C60.2962 74.236 60.2298 74.2322 60.161 74.2283C60.1748 72.8068 60.2436 71.3852 60.2524 69.9611C60.2561 69.4142 60.2424 68.8686 60.2323 68.3205C60.9705 68.3282 61.7124 68.3832 62.4518 68.3948C63.23 68.4076 64.0069 68.414 64.7826 68.3948C65.1304 68.3871 65.4757 68.2769 65.8235 68.2744H65.9124C65.9161 69.4296 65.9424 70.5835 65.9549 71.7361C65.9587 72.0281 65.9624 72.3214 65.9624 72.6159C66.4216 72.0844 66.902 71.407 67.3674 70.5489C67.3712 70.3517 67.3737 70.1583 67.3749 69.9611C67.3787 69.4129 67.3649 68.8622 67.3549 68.3115C67.5125 68.3179 67.6677 68.3256 67.8253 68.3307C67.9992 68.3371 68.1706 68.3538 68.3445 68.3653C68.5084 67.8748 68.6298 67.3766 68.7149 66.8759C68.262 66.8426 67.809 66.8029 67.3499 66.8029C67.3536 66.6761 67.3574 66.5531 67.3624 66.4263C67.4412 64.7333 67.2448 63.0363 67.3812 61.3433C67.3887 61.2357 67.3912 61.1281 67.3937 61.0205C67.5376 61.0269 67.6827 61.0333 67.8266 61.0372C68.0142 61.0448 68.2007 61.0615 68.3883 61.0743C68.2507 60.5031 68.0968 59.9819 67.9492 59.5285C67.7352 59.5157 67.52 59.508 67.3049 59.5106C67.2823 59.0534 67.2986 58.5974 67.4387 58.1441C67.4462 58.1146 67.4287 58.0877 67.4287 58.0608C67.425 57.9071 67.4187 57.7522 67.4162 57.5998C67.3962 56.985 67.3799 56.3703 67.3511 55.7556C67.3311 55.3227 67.1772 54.8693 67.2598 54.4646C67.3099 54.2162 67.3411 53.9703 67.3574 53.7257C67.5125 53.7321 67.6702 53.7385 67.8266 53.7436C68.2232 53.7577 68.6185 53.8166 69.0139 53.8012C69.9097 53.7679 70.8029 53.677 71.6987 53.6591C72.1754 53.6488 72.6533 53.6514 73.1325 53.6565C73.1 54.0522 73.1137 54.4429 73.1288 54.8335L74.4312 54.2046C74.4599 54.0241 74.4775 53.8461 74.4875 53.6668C74.5888 53.6668 74.6914 53.6693 74.7927 53.6693C75.088 53.6668 75.3833 53.6194 75.676 53.6027L78.476 52.2477L78.4272 52.1478H78.4259ZM45.8859 54.4633C45.9322 54.2354 45.9622 54.0074 45.9785 53.7807C46.1862 53.7641 46.3951 53.7436 46.6028 53.7231C46.803 53.7039 47.0106 53.6655 47.2058 53.6988C48.2305 53.8742 49.2539 53.9344 50.2785 53.7013C50.3736 53.6783 50.4787 53.7052 50.5776 53.7154C50.9254 53.7487 51.2744 53.823 51.6222 53.8153C51.6623 53.8153 51.7036 53.8153 51.7436 53.8128C51.6985 54.6657 51.8424 55.502 51.7248 56.3588C51.5834 57.3961 51.6785 58.4694 51.7048 59.5247C51.7073 59.5656 51.7073 59.6079 51.7073 59.6489C51.3858 59.6681 51.0642 59.6924 50.7414 59.7219C50.6664 59.7309 50.5838 59.7513 50.5175 59.7283C49.7693 59.4773 49.0137 59.6988 48.263 59.6886C47.4923 59.6758 46.7166 59.7565 45.946 59.7757C45.9072 59.2275 45.8959 58.6807 46.0648 58.1389C46.0711 58.1159 46.0548 58.089 46.0523 58.0621C46.0285 57.295 46.0123 56.524 45.976 55.7568C45.956 55.324 45.8021 54.8706 45.8847 54.4659L45.8859 54.4633ZM45.9835 68.3679C46.1899 68.3487 46.3976 68.3282 46.604 68.3102C46.8042 68.291 47.0119 68.25 47.2071 68.2833C48.2317 68.4588 49.2551 68.519 50.2798 68.2859C50.3749 68.2654 50.48 68.2897 50.5788 68.3C50.9266 68.3346 51.2757 68.4101 51.6235 68.4012C51.6372 68.4012 51.6498 68.4012 51.6635 68.3986C51.6673 69.5115 51.6935 70.6232 51.7061 71.7348C51.7123 72.3496 51.7198 72.9643 51.7086 73.579C51.7048 73.7967 51.6848 74.0157 51.666 74.2347C51.3582 74.2552 51.0492 74.2783 50.7427 74.3077C50.6676 74.3141 50.5851 74.3346 50.5188 74.3116C49.7706 74.0606 49.0149 74.2821 48.2643 74.2719C47.4823 74.2616 46.6929 74.3423 45.9109 74.3603C45.9234 72.8823 45.9935 71.421 46.0035 69.9585C46.0073 69.4283 45.9935 68.8968 45.9835 68.3666V68.3679ZM51.681 66.9425C51.3695 66.9617 51.0567 66.9834 50.7427 67.0155C50.6676 67.0219 50.5851 67.0424 50.5188 67.0193C49.7706 66.7696 49.0149 66.9898 48.2643 66.9796C47.5036 66.9694 46.7354 67.0462 45.9735 67.0667C45.9772 66.8541 45.981 66.6402 45.9922 66.4251C46.0686 64.732 45.8746 63.035 46.0085 61.342C46.016 61.251 46.0185 61.1614 46.021 61.0705C46.2149 61.0538 46.4114 61.0359 46.6053 61.0167C46.8055 60.9962 47.0132 60.9565 47.2083 60.9898C48.233 61.1652 49.2564 61.2254 50.281 60.9923C50.3761 60.9718 50.4812 60.9962 50.5801 61.0064C50.9279 61.0397 51.2769 61.1166 51.6247 61.1063H51.7198C51.7161 62.3768 51.6835 63.6498 51.7173 64.9228C51.7361 65.5952 51.7036 66.2675 51.681 66.9425ZM38.8847 61.342C38.8922 61.2446 38.8947 61.1473 38.8972 61.05C39.3439 61.0295 39.7905 61.0436 40.2359 61.1883C40.2584 61.196 40.2847 61.178 40.311 61.1755C41.0604 61.1511 41.8135 61.1345 42.563 61.0974C42.9858 61.0769 43.4287 60.9193 43.8241 61.0039C44.0831 61.0602 44.3395 61.091 44.596 61.1076C44.5898 62.378 44.5597 63.6485 44.5935 64.9215C44.6123 65.6169 44.5772 66.3124 44.5547 67.0091C43.689 66.945 42.842 67.1089 41.9737 66.9847C40.9603 66.84 39.9119 66.9373 38.881 66.9617C38.8547 66.7836 38.8584 66.6031 38.8684 66.4238C38.9448 64.7307 38.7496 63.0338 38.8847 61.3407V61.342ZM38.881 69.9585C38.8835 69.4219 38.8709 68.884 38.8584 68.3448C39.3188 68.3205 39.778 68.332 40.2346 68.4831C40.2572 68.4895 40.2834 68.4703 40.3097 68.4703C41.0591 68.4434 41.8123 68.4268 42.5617 68.3922C42.9846 68.3717 43.4275 68.2116 43.8228 68.2987C44.063 68.3487 44.302 68.382 44.5385 68.3986C44.5447 69.5102 44.571 70.6232 44.5835 71.7348C44.5898 72.3496 44.5973 72.9643 44.586 73.579C44.5797 73.8185 44.5572 74.0606 44.5372 74.3039C43.6777 74.2411 42.837 74.4012 41.9737 74.2796C40.9603 74.1348 39.9119 74.2322 38.881 74.2591H38.7884C38.8021 72.8273 38.8709 71.3954 38.881 69.9611V69.9585ZM44.6348 79.6457C44.3683 80.2847 44.4809 80.9417 44.536 81.5949C43.6764 81.5347 42.8357 81.6948 41.9749 81.5706C40.9615 81.4259 39.9131 81.5232 38.8822 81.5501C38.8584 81.0967 38.8071 80.6459 38.7771 80.1925C38.7308 79.4741 38.9185 78.7441 38.7433 78.0154C38.7208 77.9219 38.7621 77.813 38.7734 77.7106C38.8071 77.3788 38.8785 77.0484 38.8722 76.7193C38.8684 76.3594 38.8484 75.9995 38.8297 75.6409C39.3013 75.6115 39.7692 75.6217 40.2372 75.7754C40.2597 75.7818 40.2859 75.7626 40.3122 75.7626C41.0616 75.7383 41.8148 75.7216 42.5642 75.6845C42.9871 75.664 43.43 75.5065 43.8253 75.591C44.0718 75.6422 44.3145 75.6742 44.5597 75.6909C44.6586 76.9332 44.4747 78.178 44.6548 79.4139C44.6673 79.4882 44.6648 79.5778 44.636 79.6457H44.6348ZM51.7586 79.6457C51.4996 80.2643 51.5985 80.8982 51.6535 81.5283C51.3507 81.5475 51.0467 81.5693 50.7439 81.5987C50.6689 81.6064 50.5863 81.6282 50.52 81.6051C49.7718 81.3541 49.0162 81.5744 48.2655 81.5642C47.5136 81.5539 46.7529 81.6308 45.9998 81.6513C45.9897 81.1646 45.9334 80.6805 45.9009 80.1925C45.8546 79.4741 46.0423 78.7441 45.8671 78.0154C45.8446 77.9219 45.8859 77.813 45.8972 77.7106C45.9334 77.3788 46.0023 77.0484 45.996 76.7193C45.9922 76.3671 45.9735 76.0136 45.956 75.6614C46.1724 75.6422 46.3901 75.6217 46.6065 75.6012C46.8067 75.582 47.0144 75.5436 47.2096 75.5769C48.2342 75.7524 49.2576 75.8113 50.2823 75.5769C50.3774 75.5564 50.4825 75.5833 50.5813 75.591C50.9291 75.6256 51.2782 75.7011 51.626 75.6922C51.6447 75.6922 51.6648 75.6922 51.6823 75.6896C51.7811 76.9319 51.5972 78.1767 51.7774 79.4126C51.7899 79.4869 51.7874 79.5765 51.7586 79.6444V79.6457ZM58.8824 79.6457C58.6359 80.2399 58.7173 80.8457 58.7711 81.4527C58.7323 81.4591 58.6922 81.4604 58.6535 81.4668C57.7727 81.6282 56.9006 81.5911 56.0299 81.5373C55.0578 81.4771 54.0869 81.4527 53.1186 81.4694C53.0998 81.0455 53.0522 80.619 53.026 80.1925C52.9772 79.4741 53.1661 78.7441 52.9897 78.0154C52.9672 77.9219 53.0097 77.813 53.0197 77.7106C53.056 77.3788 53.1248 77.0484 53.1211 76.7193C53.1148 76.3735 53.0973 76.0277 53.0785 75.6819C54.3809 75.6883 55.6821 75.7165 56.9857 75.6217C57.58 75.5808 58.188 75.6243 58.8011 75.6345C58.9099 76.8947 58.7185 78.1588 58.9024 79.4139C58.9124 79.4882 58.9099 79.5778 58.8824 79.6457ZM58.8536 56.3562C58.7123 57.3936 58.8073 58.4668 58.8311 59.5221C58.8336 59.5362 58.8336 59.5516 58.8336 59.5656C58.7736 59.5695 58.7123 59.5784 58.6535 59.5887C57.7727 59.7501 56.9006 59.7129 56.0299 59.6566C55.039 59.5964 54.0506 59.572 53.0623 59.59C53.0335 59.1033 53.0422 58.6179 53.1911 58.1351C53.1986 58.1121 53.1811 58.0852 53.1786 58.0583C53.1548 57.2911 53.1386 56.5201 53.1023 55.753C53.0823 55.3201 52.9284 54.8668 53.011 54.4621C53.0572 54.2405 53.086 54.0215 53.1023 53.8025C54.3959 53.8089 55.6896 53.8371 56.9857 53.7449C57.6025 53.6988 58.2393 53.7487 58.8736 53.7551C58.8186 54.6286 58.9725 55.4815 58.8536 56.3562ZM53.1085 68.3896C54.4009 68.396 55.6921 68.4229 56.9857 68.3294C57.5762 68.2885 58.1805 68.332 58.7886 68.3397C58.7923 69.4718 58.8186 70.604 58.8311 71.7335C58.8374 72.3483 58.8449 72.963 58.8336 73.5777C58.8299 73.7698 58.8136 73.9632 58.7973 74.1553C58.7485 74.1617 58.7022 74.1656 58.6535 74.1745C57.7727 74.3359 56.9006 74.2988 56.0299 74.245C55.0315 74.1835 54.0344 74.1579 53.0397 74.1784C53.0535 72.7709 53.1211 71.366 53.1286 69.9585C53.1323 69.4372 53.1186 68.9134 53.1085 68.3896ZM58.8098 66.8605C58.7573 66.8669 58.7047 66.8707 58.6547 66.881C57.7739 67.0423 56.9019 67.0052 56.0311 66.9514C55.0528 66.8899 54.0782 66.8669 53.1035 66.8835C53.106 66.7299 53.1098 66.5775 53.1173 66.4238C53.1961 64.7307 52.9997 63.0338 53.1336 61.3407C53.1398 61.26 53.1436 61.1768 53.1461 61.0961C54.426 61.1025 55.7033 61.1268 56.987 61.0359C57.595 60.9923 58.2206 61.0397 58.8474 61.0487C58.8411 62.3384 58.8086 63.6293 58.8436 64.9202C58.8624 65.5657 58.8336 66.2137 58.8111 66.8592L58.8098 66.8605ZM58.6547 52.2951C57.7739 52.4539 56.9019 52.4168 56.0311 52.363C55.0465 52.3028 54.0656 52.2785 53.0835 52.2964C53.0648 52.0684 53.0447 51.8405 53.0247 51.6138C53.0047 51.4089 52.9659 51.1963 52.9984 50.9965C53.1698 49.9476 53.2286 48.9 53.0009 47.8511C52.9809 47.7538 53.0047 47.6462 53.0147 47.545C53.0472 47.1992 53.116 46.8534 53.1123 46.5077C54.4022 46.5141 55.6933 46.541 56.9882 46.45C57.5863 46.4065 58.1993 46.4526 58.8161 46.4603C58.8349 46.7664 58.8561 47.0712 58.8849 47.3773C58.8912 47.4541 58.9112 47.5386 58.8887 47.6065C58.6447 48.3724 58.8599 49.1459 58.8499 49.9143C58.8399 50.6943 58.9149 51.4832 58.9349 52.2657C58.8424 52.2695 58.7473 52.2785 58.656 52.2951H58.6547ZM65.9349 66.872C64.959 66.9028 63.9757 66.8554 62.9973 66.8592C62.7708 66.8618 62.5469 66.9002 62.3204 66.9066C61.6699 66.9232 61.018 66.9476 60.3675 66.9399C60.3212 66.9399 60.2749 66.9373 60.2261 66.9335C60.2298 66.7644 60.2336 66.5941 60.2424 66.4225C60.3212 64.7294 60.1248 63.0325 60.2586 61.3394C60.2686 61.2344 60.2711 61.1281 60.2724 61.0231C60.998 61.0308 61.7274 61.0846 62.4543 61.0974C63.2325 61.1102 64.0094 61.1166 64.7851 61.0974C65.1329 61.0897 65.4782 60.9795 65.826 60.977H65.9712C65.9674 62.291 65.9324 63.605 65.9674 64.919C65.9862 65.5683 65.9574 66.2189 65.9349 66.8707V66.872ZM65.9799 56.3549C65.8386 57.3923 65.9336 58.4655 65.9599 59.5208V59.5772C64.9753 59.6105 63.9844 59.5605 62.9985 59.5669C62.7721 59.5695 62.5481 59.6079 62.3217 59.6143C61.6711 59.631 61.0193 59.6553 60.3687 59.6476C60.3099 59.6476 60.2511 59.6438 60.1911 59.6412C60.161 59.1366 60.1623 58.6333 60.3199 58.1351C60.3262 58.1121 60.3074 58.0852 60.3074 58.0583C60.2811 57.2911 60.2649 56.5201 60.2311 55.753C60.2111 55.3201 60.0547 54.8668 60.1398 54.4621C60.1886 54.2175 60.2186 53.9741 60.2374 53.7321C60.9755 53.7385 61.7174 53.7923 62.4556 53.8051C63.2338 53.8192 64.0107 53.8243 64.7864 53.8076C65.1342 53.7999 65.4795 53.6898 65.8273 53.6872C65.8874 53.6847 65.9487 53.6872 66.0075 53.6872C65.9411 54.5837 66.1025 55.4584 65.9812 56.3562L65.9799 56.3549ZM62.9985 52.2746C62.7721 52.2746 62.5481 52.3156 62.3217 52.3207C61.6711 52.34 61.0193 52.3643 60.3687 52.3553C60.3162 52.3528 60.2661 52.3515 60.2136 52.3489C60.1948 52.1043 60.1735 51.8584 60.151 51.6138C60.1323 51.4089 60.0922 51.1963 60.1248 50.9965C60.2962 49.9476 60.355 48.9 60.1273 47.8511C60.1072 47.7538 60.131 47.6462 60.141 47.545C60.1748 47.189 60.2486 46.8317 60.2399 46.4756C60.2399 46.4628 60.2399 46.4513 60.2374 46.4385C60.9768 46.4449 61.7174 46.4987 62.4556 46.5115C63.2338 46.5256 64.0107 46.5307 64.7864 46.5115C65.1342 46.5038 65.4795 46.395 65.8273 46.3911C65.8636 46.3911 65.8999 46.3937 65.9361 46.3937C65.9562 46.7203 65.9787 47.0494 66.0087 47.3785C66.015 47.4554 66.035 47.5399 66.0125 47.6078C65.7685 48.3736 65.9837 49.1472 65.9737 49.9156C65.9637 50.7019 66.04 51.4947 66.0588 52.281C65.0416 52.322 64.0195 52.2682 62.9985 52.2746ZM71.6675 52.281C70.9281 52.2951 70.1862 52.3617 69.4455 52.3323C68.7374 52.3054 68.0405 52.2106 67.3274 52.2119C67.3111 52.0134 67.2936 51.8123 67.2748 51.6138C67.2561 51.4089 67.2185 51.1963 67.2511 50.9965C67.4225 49.9476 67.48 48.9 67.2511 47.8511C67.231 47.7538 67.2573 47.6462 67.2648 47.545C67.2986 47.189 67.3724 46.8317 67.3637 46.4756V46.4295C67.5188 46.4359 67.6752 46.4423 67.8303 46.4475C68.2269 46.4616 68.6223 46.5205 69.0176 46.5051C69.9134 46.4718 70.8067 46.3809 71.7025 46.3604C72.1554 46.3527 72.6083 46.354 73.0612 46.3578C73.08 46.6972 73.1037 47.0366 73.1338 47.376C73.1413 47.4528 73.1625 47.5373 73.14 47.6052C72.8961 48.3711 73.11 49.1446 73.1 49.913C73.09 50.693 73.1663 51.4793 73.1851 52.258C72.6796 52.2618 72.1742 52.2682 71.6687 52.2785L71.6675 52.281Z" fill="#DDE8FF"/>
<path d="M69.28 36.8777L77.3496 52.8748C77.3496 52.8748 86.5428 48.3783 88.6872 47.1245C90.8328 45.8694 95.0203 41.5829 94.3046 37.1914C93.5902 32.7999 90.1172 28.5134 84.4984 22.2393C78.881 15.9652 70.1983 8.33222 68.6657 7.49592C67.1331 6.65963 61.5156 4.777 61.5156 4.777C61.5156 4.777 54.7734 4.35822 53.3446 4.98576C51.9146 5.6133 47.8285 8.74972 47.8285 10.3186C47.8285 11.8874 48.2051 14.924 49.4987 15.0264C50.7911 15.1289 52.5552 15.759 52.4388 13.9801C52.3237 12.2012 52.9355 9.69104 52.9355 9.69104L54.059 8.54097C54.059 8.54097 54.2629 11.9912 56.1021 13.0375C57.9412 14.0825 57.8386 15.2326 57.8386 15.2326C57.8386 15.2326 57.4295 17.1152 56.5112 17.219C55.5916 17.324 51.822 16.4134 51.2002 18.0553C50.5772 19.6971 50.9963 21.5055 52.4263 20.9829C53.8563 20.4604 54.7759 20.6692 56.8189 21.4017C58.862 22.133 63.1521 20.7742 63.1521 20.7742L76.7378 34.0537L69.2812 36.8764L69.28 36.8777Z" fill="white"/>
<path d="M32.8143 57.058C31.8947 58.4168 32.4052 60.927 34.7547 62.2858C37.1043 63.6446 42.927 65.3185 43.2322 65.4222C43.5388 65.5272 40.5761 77.4467 40.5761 77.4467L29.6465 75.6691C29.6465 75.6691 28.2027 89.1356 31.4856 94.3852C34.7672 99.6348 37.8187 101.286 42.9257 101.182C48.0327 101.077 53.2423 96.8953 54.5698 90.3074C55.8972 83.7195 55.7208 67.5354 55.6933 63.9584C55.6657 60.3814 53.4463 56.2204 53.4463 56.2204C53.4463 56.2204 58.7572 51.3064 57.3272 46.2873C55.8972 41.2683 51.7097 37.2956 51.7097 37.2956C51.7097 37.2956 48.0327 32.9041 43.6401 33.4266C39.2475 33.9491 32.9144 38.5506 32.9144 38.5506L32.8118 57.058H32.8143Z" fill="white"/>
<path d="M68.1293 58.2968C68.2719 58.9179 68.4171 59.5531 68.5647 60.1896C68.5935 60.3139 68.6185 60.4419 68.6673 60.5585C69.0576 61.5011 69.0701 62.5128 69.1965 63.5054C69.2941 64.2751 69.2691 65.0345 69.2165 65.8042C69.159 66.6623 69.0201 67.4819 68.676 68.2708C68.4934 68.6896 68.4721 69.1993 68.2344 69.572C67.7965 70.2559 67.5788 71.0487 67.0433 71.698C66.6555 72.168 66.419 72.8007 66.0249 73.304C65.5395 73.9238 65.1066 74.5885 64.396 74.9894C64.0845 75.1648 63.9731 75.4261 63.9719 75.8692C63.9669 77.1461 63.813 78.4216 63.7292 79.6972C63.7079 80.0276 63.7254 80.3593 63.7254 80.723C65.1579 81.7617 66.1413 83.2332 66.9483 84.8482C66.9708 84.8943 66.9795 84.957 67.0158 84.9852C67.9291 85.728 68.0217 86.9959 68.7649 87.845C69.0601 89.013 69.8358 90.0081 69.9196 91.2593C69.9447 91.6346 70.1323 91.9983 70.2399 92.3684C70.4388 93.0562 70.4889 93.7388 70.1336 94.3945C70.0623 94.5264 69.9809 94.7006 69.8608 94.7505C68.9863 95.1219 68.1506 95.6175 67.1634 95.6406C65.5107 95.6777 63.853 95.6508 62.2091 95.7956C61.0093 95.9006 59.8632 95.6035 58.6947 95.574C57.7364 95.5497 56.778 95.3717 55.7946 95.5996C55.049 95.7725 54.237 95.6521 53.4551 95.6611C53.355 95.6611 53.2549 95.6611 53.2086 95.6611C52.4192 96.6536 51.701 97.6436 50.8903 98.5478C50.2597 99.2509 49.4428 99.7363 48.5833 100.12C47.785 100.478 46.9193 100.669 46.1786 101.176C45.9997 101.299 45.7558 101.327 45.5381 101.388C45.3929 101.429 45.224 101.418 45.0989 101.491C44.5384 101.816 43.9679 101.933 43.3061 101.878C42.6142 101.82 41.9086 101.986 41.208 102.001C40.1445 102.022 39.1036 101.812 38.094 101.501C37.586 101.345 37.1206 101.03 36.6489 100.763C36.0134 100.402 35.3716 100.047 34.7673 99.6338C34.3319 99.3367 33.8828 99.0076 33.5675 98.5913C32.5904 97.3017 31.5107 96.0722 30.9189 94.5174C30.5636 93.5838 30.1069 92.6694 29.9067 91.6999C29.7303 90.8418 29.3237 90.0875 29.131 89.2538C29.0422 88.8708 28.8295 88.8311 28.5155 88.9003C28.1214 88.9874 27.7236 89.0501 27.3307 89.1411C26.3211 89.3754 25.414 89.1961 24.557 88.575C23.7801 88.0128 22.9506 87.5274 22.1461 87.0049C21.9985 86.9088 21.8421 86.8166 21.7182 86.6936C21.2391 86.2211 20.6686 86.1442 20.038 86.2211C19.7227 86.2595 19.3974 86.239 19.0797 86.2121C18.5029 86.1634 17.9286 86.0533 17.3519 86.0341C15.4765 85.9726 14.089 84.9532 12.8216 83.6776C12.4087 83.2614 11.9596 82.881 11.5643 82.4494C11.2127 82.0652 10.8899 81.649 10.5959 81.2161C10.3106 80.796 10.0817 80.3376 9.82521 79.897C9.74765 79.7638 9.68384 79.6114 9.57624 79.5102C8.78554 78.7661 8.51906 77.7134 8.02737 76.7939C7.97858 76.7029 7.95606 76.5826 7.88475 76.5236C7.0953 75.8654 6.62113 74.86 5.62275 74.4207C5.28995 74.2747 5.01721 73.9827 4.71945 73.7535C4.65939 73.7074 4.61811 73.6165 4.5543 73.5985C3.9375 73.4295 3.60346 72.9146 3.17183 72.4958C2.36987 71.7172 1.78685 70.8104 1.35522 69.7859C1.3352 69.7385 1.33896 69.6732 1.30768 69.6412C0.729666 69.0623 0.867288 68.2542 0.673366 67.5549C0.480696 66.8595 0.368096 66.1462 0.455674 65.411C0.617066 64.0612 0.95987 62.7843 1.84065 61.7213C2.16343 61.332 2.50123 60.9632 2.89158 60.6264C3.28192 60.2908 3.62348 59.8938 4.03509 59.5583C4.65314 59.0537 5.44509 58.8974 6.03686 58.4364C6.86635 57.7896 7.89601 57.6705 8.74426 57.1236C9.23344 56.8086 9.76641 56.5576 9.97159 55.9275C10.0129 55.7994 10.1705 55.6982 10.2944 55.6137C10.6122 55.3998 10.731 55.1206 10.7936 54.7236C10.8799 54.1768 11.1201 53.6542 11.3053 53.1253C11.6681 52.0892 12.0609 51.0672 12.5814 50.1003C12.714 49.8544 12.7628 49.5611 12.8917 49.3127C13.028 49.0489 13.2045 48.803 13.3821 48.5635C13.6986 48.1332 14.0239 47.7118 14.3517 47.2905C14.6207 46.9447 14.9185 46.6565 15.3501 46.4964C15.6441 46.3876 15.8781 46.1173 16.1496 45.9355C17.0316 45.3476 18.035 45.1427 19.0471 44.9301C20.2082 44.6868 21.3254 44.2706 22.3776 43.7084C22.6791 43.547 22.9281 43.2678 23.1733 43.0142C23.7688 42.3956 24.3343 41.7463 24.9373 41.1354C25.6142 40.4503 26.3361 39.8125 27.0017 39.1171C27.3682 38.7341 27.6247 38.2411 27.9875 37.8556C28.7007 37.0987 29.395 36.2982 30.2133 35.6745C30.81 35.2199 31.4669 34.828 32.0499 34.3426C32.6467 33.8457 33.3548 33.6382 34.0416 33.3347C34.9287 32.9428 35.8382 32.679 36.7503 32.3947C36.9179 32.3422 37.0906 32.2986 37.2645 32.2692C38.0539 32.1373 38.8434 32.013 39.6328 31.8824C39.7567 31.8619 39.8781 31.7992 40.0007 31.8004C40.7951 31.8094 41.5896 31.8542 42.3828 31.8401C42.8519 31.8312 43.3224 31.9016 43.7753 31.8952C44.7148 31.8811 45.5556 32.2448 46.4401 32.4267C46.8705 32.5151 47.2621 32.8083 47.6649 33.0209C47.8439 33.1157 47.9927 33.2937 48.1779 33.345C49.145 33.6062 49.7118 34.4797 50.5475 34.9356C50.6351 34.983 50.7176 35.0547 50.7777 35.1341C51.2031 35.6963 51.5909 36.2931 52.0526 36.8233C52.782 37.6596 53.1836 38.7328 54.0794 39.4667C54.9964 40.2172 55.7759 41.1431 56.6404 42.0165C57.2209 41.5465 57.7576 41.0842 58.3244 40.6603C59.0513 40.116 59.8007 39.6024 60.5426 39.0799C61.2157 38.6061 61.9701 38.3525 62.7595 38.1476C63.4602 37.9657 64.127 37.6507 64.8176 37.4214C65.4382 37.2152 66.0625 37.0001 66.7018 36.8733C67.7552 36.6658 68.7473 36.2637 69.7695 35.9563C71.4998 35.4338 73.2251 34.8972 74.9503 34.3618C75.113 34.3119 75.2669 34.2338 75.5071 34.1351C75.0329 33.6907 74.615 33.3001 74.1984 32.907C73.9595 32.6816 73.7268 32.4485 73.4853 32.2256C73.0987 31.8683 72.7659 31.4739 72.2867 31.1934C71.8038 30.9104 71.4622 30.3725 71.0594 29.9447C70.7466 29.6117 70.4363 29.2749 70.1248 28.9406C69.8308 28.6256 69.5355 28.3131 69.2428 27.9968C69.1565 27.9033 69.0901 27.7816 68.9888 27.7137C68.1518 27.1502 67.53 26.3741 66.927 25.575C66.8069 25.4149 66.6492 25.2855 66.5104 25.1395C66.035 24.6413 65.5683 24.1355 65.0829 23.6475C64.655 23.2172 64.2046 22.8112 63.7654 22.3912C63.6191 22.2503 63.4764 22.1056 63.3326 21.9621C63.2437 21.8725 63.1674 21.7239 63.0648 21.7009C62.6257 21.6061 62.1778 21.4959 61.7336 21.4998C61.4884 21.5024 61.2132 21.6778 61.0055 21.8443C60.3287 22.3873 59.5517 22.6486 58.7185 22.728C58.407 22.7574 58.0804 22.6473 57.7614 22.5922C56.6904 22.4052 55.6783 22.0185 54.6887 21.5843C54.3083 21.4178 53.953 21.3922 53.5889 21.5011C53.1573 21.6304 52.7394 21.8084 52.3228 21.9826C51.8474 22.1811 51.3845 22.0774 50.9991 21.7342C50.3048 21.1169 49.9995 20.31 50.0608 19.4199C50.1146 18.6362 50.3411 17.8882 50.9579 17.2927C51.7373 16.5409 52.5693 16.0773 53.6678 16.3296C53.7165 16.3411 53.7703 16.3783 53.8116 16.3655C54.8701 16.044 55.9535 16.354 57.072 16.2348C57.1471 16.012 57.2272 15.7776 57.3247 15.4908C56.8531 15.3742 56.4953 15.2 56.5203 14.6353C56.5265 14.4854 56.3351 14.2907 56.19 14.178C55.9298 13.9783 55.6307 13.8323 55.3542 13.6517C54.4334 13.0523 53.9918 12.1699 53.9618 11.0749C53.9455 10.4871 53.9968 9.89796 54.0193 9.27042C53.2724 9.52272 52.9659 10.1323 52.827 10.8559C52.7006 11.5116 52.6706 12.1904 52.5067 12.8333C52.3503 13.4455 52.1552 14.0833 51.6948 14.5392C51.0755 15.1527 50.2823 15.1796 49.4966 15.0143C48.5432 14.8146 48.0015 14.1524 47.6862 13.2316C47.2771 12.0354 47.2771 10.7919 47.6474 9.65079C48.1166 8.2036 48.9085 6.89345 50.2522 6.05587C50.6576 5.80357 51.0479 5.52694 51.452 5.27337C51.5997 5.18116 51.7636 5.09663 51.93 5.05693C52.5881 4.90196 53.2499 4.76877 53.9092 4.62149C54.2032 4.55618 54.501 4.4947 54.7837 4.39481C55.1766 4.25521 55.5394 4.21295 55.956 4.36919C56.21 4.46397 56.5466 4.39481 56.8293 4.32693C57.376 4.19502 57.894 4.06823 58.4532 4.3359C58.6409 4.42555 58.9412 4.32181 59.1726 4.25009C60.8416 3.73269 62.3992 3.94656 63.8555 4.93782C63.9919 5.03131 64.1708 5.07614 64.3372 5.10175C65.1329 5.22598 65.9461 5.2708 66.7218 5.46803C67.4112 5.64349 68.1781 5.8215 68.382 6.70262C69.179 6.92675 69.8608 7.22387 70.4589 7.86678C71.3922 8.87084 72.4907 9.71354 73.5153 10.6292C73.7418 10.8329 73.9407 11.0698 74.1696 11.2696C74.9316 11.9343 75.701 12.5913 76.4679 13.2495C76.5255 13.2995 76.5993 13.3341 76.6456 13.393C77.4651 14.4432 78.5523 15.1975 79.4944 16.1119C80.8456 17.4233 82.1692 18.7642 83.4779 20.1205C84.3587 21.0336 85.1919 21.9954 86.0502 22.9316C86.6507 23.5873 87.2612 24.2341 87.8618 24.8898C87.9468 24.982 88.0156 25.0973 88.0657 25.2138C88.3084 25.7888 88.7626 26.1449 89.253 26.4791C89.5195 26.661 89.7985 26.8646 89.9836 27.1246C90.9032 28.4091 91.8503 29.6745 92.5484 31.1127C92.8812 31.7979 93.3616 32.4113 93.6744 33.1055C93.9847 33.7932 94.3262 34.4656 94.5552 35.2058C94.8367 36.1138 94.8842 37.0372 94.9293 37.9465C95.0281 39.9175 94.6302 41.795 93.453 43.4279C93.2841 44.2232 92.6185 44.6906 92.2281 45.3438C91.9992 45.7267 91.6489 46.0546 91.2973 46.3338C90.4641 46.9933 89.6283 47.6619 88.735 48.2305C87.5628 48.9771 86.3442 49.6482 85.1281 50.318C84.734 50.5345 84.2848 50.6446 83.8645 50.8137C83.5392 50.9443 83.2202 51.0877 82.8986 51.2273C82.8523 51.2478 82.816 51.3042 82.7723 51.3093C81.6613 51.4374 80.7955 52.1853 79.7746 52.5477C79.2166 52.7462 78.6211 52.9281 78.1945 53.4083C78.1294 53.4813 78.0356 53.5415 77.9442 53.5723C76.5105 54.0589 75.2356 54.8991 73.8544 55.5061C73.3314 55.7354 72.7847 55.9057 72.3318 56.3117C72.0853 56.532 71.6762 56.5486 71.3597 56.701C70.2662 57.2248 69.1815 57.7678 68.1255 58.2878L68.1293 58.2968ZM37.5585 55.8622C37.7061 57.0238 38.5068 57.5565 39.1236 58.1367C39.8518 58.8206 40.7551 59.338 41.7159 59.6774C42.0412 59.7913 42.3903 59.8451 42.7331 59.8925C43.231 59.9617 43.7352 59.9886 44.2319 60.0577C44.5559 60.1025 44.7861 60.4637 44.85 60.9248C44.8937 61.2475 44.6998 61.4601 44.4659 61.5075C44.1118 61.5779 43.7327 61.5574 43.3674 61.528C42.9971 61.4972 42.6305 61.414 42.2639 61.3435C41.8936 61.2731 41.4982 61.2552 41.1629 61.1015C40.1058 60.6212 39.0135 60.1896 38.1765 59.3188C37.2808 58.3877 36.2136 57.5962 35.9408 56.1836C35.8482 55.7046 35.2477 55.4459 34.6885 55.5292C34.4508 56.3104 34.4983 57.5937 34.8749 58.1303C35.314 58.754 35.7657 59.3956 36.3237 59.8989C37.3358 60.8095 38.4105 61.6214 39.7805 61.9736C40.4085 62.135 40.979 62.3822 41.6659 62.3425C42.4228 62.2989 42.7981 62.8599 42.598 63.5656C42.5329 63.7961 42.3427 63.9895 42.2101 64.2008C42.4841 64.2571 42.7931 64.3416 43.1072 64.3826C43.9754 64.4966 44.5922 65.37 44.392 66.2473C44.1806 67.172 43.8578 68.0813 43.754 69.0162C43.6276 70.1509 43.2761 71.2203 43.0409 72.323C42.8757 73.0991 42.6505 73.8624 42.4553 74.6333C42.2477 75.4543 42.0825 76.288 41.8285 77.0935C41.5683 77.9196 41.2255 78.7188 40.914 79.5282C40.6475 80.2197 40.3797 80.9113 40.1007 81.5978C39.8605 82.1894 39.5415 82.7568 39.3714 83.3677C39.1599 84.1246 38.5982 84.7688 38.6757 85.6204C38.6857 85.7293 38.5569 85.8446 38.5181 85.9649C38.2604 86.7679 38.0026 87.5709 37.7587 88.3778C37.611 88.867 37.5097 89.3729 37.3408 89.8531C37.2445 90.1272 37.028 90.327 36.7015 90.3052C36.3825 90.2834 36.0109 89.9774 35.9383 89.6405C35.8958 89.4433 35.8445 89.1897 35.9271 89.0322C36.1998 88.5148 36.1623 87.9321 36.3249 87.4032C36.6565 86.3223 37.0556 85.2631 37.4409 84.2001C37.6323 83.6712 37.9614 83.1692 38.0302 82.6287C38.0965 82.1126 38.2854 81.7041 38.5206 81.2763C38.667 81.0099 38.7596 80.7115 38.8559 80.4195C39.1199 79.6268 39.3726 78.8289 39.6316 78.031C39.6103 78.0221 39.5678 77.99 39.5227 77.9862C38.5519 77.8876 37.5623 78.0605 36.6064 77.6827C36.2511 77.5418 35.817 77.5456 35.4254 77.5777C34.7247 77.634 34.0642 77.4099 33.4699 77.1525C32.6767 76.8092 31.8522 76.7029 31.0177 76.4237C30.9577 76.8989 30.9026 77.3049 30.8551 77.7108C30.795 78.2167 30.7362 78.7008 30.8651 79.2298C30.9864 79.7305 30.9014 80.2902 30.8663 80.8217C30.8376 81.2533 30.6737 81.6848 30.7037 82.1075C30.7537 82.8208 30.5273 83.5214 30.6599 84.2322C30.6824 84.3513 30.6561 84.5011 30.6023 84.61C30.2208 85.3809 30.4797 86.2134 30.3721 87.01C30.3534 87.1521 30.4059 87.3225 30.471 87.4569C30.7587 88.055 30.5998 88.7914 31.0365 89.3473C31.0965 89.4228 31.0165 89.6008 31.0415 89.7212C31.1503 90.2437 31.064 90.829 31.4306 91.2709C31.956 91.9048 32.0787 92.7244 32.2963 93.4583C32.6054 94.5046 33.2071 95.3396 33.7639 96.2067C34.417 97.2235 35.3003 98.0265 36.3687 98.6016C36.719 98.7911 37.0143 99.0921 37.3683 99.2701C38.104 99.6402 38.8334 100.049 39.6804 100.11C39.8793 100.124 40.077 100.164 40.2734 100.199C40.6412 100.264 41.0053 100.373 41.3756 100.397C42.3115 100.459 43.2047 100.245 44.1243 100.055C45.1852 99.8362 46.0598 99.256 47.0507 98.932C47.3609 98.8308 47.7137 98.7668 47.959 98.5708C48.871 97.8421 50.0958 97.4886 50.6251 96.2912C50.6538 96.2259 50.7352 96.1862 50.7852 96.1285C51.068 95.8032 51.4883 95.5189 51.6047 95.1398C51.9012 94.1704 52.757 93.5441 52.9934 92.5285C53.0872 92.1276 53.2999 91.7319 53.355 91.2952C53.3863 91.0403 53.4175 90.7804 53.4964 90.5396C53.709 89.8839 54.0644 89.2717 54.0043 88.5391C53.9955 88.429 54.1207 88.3137 54.1544 88.1921C54.3909 87.3263 54.6223 86.4593 54.845 85.591C54.8688 85.4962 54.825 85.3861 54.8263 85.2836C54.8313 84.9532 54.8325 84.6215 54.8538 84.2923C54.8713 84.0106 54.9464 83.7314 54.9426 83.4509C54.9314 82.557 54.8738 81.6644 54.8776 80.7704C54.8801 79.9982 54.9964 79.2234 54.9639 78.4537C54.9251 77.5316 54.7825 76.6146 54.6812 75.695C54.6674 75.5695 54.6186 75.444 54.6236 75.3211C54.6574 74.5065 54.7074 73.692 54.7412 72.8775C54.7837 71.8734 54.8113 70.8694 54.8576 69.8666C54.8788 69.3914 54.8638 68.8997 54.9814 68.4463C55.1028 67.9827 55.1503 67.5549 55.0502 67.0836C54.9939 66.816 55.0577 66.5214 55.0702 66.2396C55.0778 66.0885 55.1115 65.9361 55.0978 65.7876C55.0302 65.0704 54.9564 64.3545 54.8713 63.6385C54.7575 62.6767 54.7925 61.6829 54.2745 60.8044C54.1732 60.6328 54.1157 60.4176 54.0944 60.2165C54.0256 59.5826 53.704 59.0549 53.4413 58.5042C53.136 57.8652 52.8333 57.2287 52.229 56.7983C52.0088 56.6421 51.8311 56.5115 51.5496 56.5858C50.6976 56.8099 49.8431 57.0186 48.9886 57.2325C48.7972 57.2799 48.6045 57.3273 48.4106 57.3657C48.1178 57.4233 47.77 57.3887 47.5398 57.5412C46.9468 57.9369 46.3087 57.901 45.6544 57.9407C44.4033 58.0176 43.2098 57.7051 42.0024 57.4797C41.1504 57.3209 40.4148 56.8713 39.6566 56.4731C39.2087 56.2374 38.7521 56.0133 38.2779 55.8429C38.0752 55.77 37.82 55.8494 37.5547 55.8609L37.5585 55.8622ZM70.599 37.3126C70.599 37.3126 70.594 37.3958 70.6203 37.4611C71.0219 38.4332 71.4335 39.4001 71.8326 40.3734C72.0177 40.8255 72.1729 41.2891 72.3543 41.7425C72.5357 42.1933 72.7109 42.6492 72.9273 43.0821C73.3664 43.9632 73.8419 44.8251 74.2835 45.705C74.6476 46.4298 74.9666 47.179 75.3394 47.9001C75.7273 48.6506 76.269 49.3396 76.533 50.1285C76.7782 50.8623 77.2561 51.3246 77.7203 51.8664C78.7287 51.4284 79.7271 51.0685 80.5941 50.4166C80.7905 50.2681 81.042 50.1528 81.2809 50.117C81.6675 50.0593 82.0103 49.9569 82.3068 49.6841C82.4144 49.5855 82.5733 49.5419 82.7147 49.4869C83.7456 49.0873 84.7778 48.6928 85.8074 48.292C85.9238 48.2471 86.0602 48.2049 86.1402 48.1178C86.9147 47.2828 88.1007 47.1137 88.8952 46.2749C89.4782 45.6588 90.2151 45.1965 90.8807 44.6612C90.9382 44.6151 90.9708 44.5382 91.0133 44.4742C91.4287 43.8339 91.9166 43.2294 92.2406 42.5429C92.7148 41.5388 93.2853 40.5463 93.229 39.3591C93.2228 39.2362 93.2966 39.1119 93.3128 38.9851C93.3791 38.4524 93.6043 37.8658 93.4617 37.3971C93.2015 36.5441 93.2228 35.6208 92.7724 34.8139C92.3019 33.9712 91.9329 33.0696 91.4775 32.2179C91.1659 31.6365 90.7868 31.0922 90.429 30.5377C89.9724 29.8307 89.5583 29.0854 89.0315 28.4386C88.5761 27.8789 87.9581 27.4614 87.4639 26.9299C86.8871 26.3101 86.3104 25.6825 85.865 24.9449C85.7486 24.7515 85.5785 24.5901 85.4221 24.4236C85.1268 24.1098 84.7753 23.8383 84.5326 23.4862C83.8269 22.4667 82.9074 21.674 81.9991 20.8671C81.5674 20.4842 81.0745 20.1627 80.8618 19.5736C80.8218 19.4622 80.7142 19.3521 80.6103 19.2919C80.0536 18.9691 79.6445 18.4927 79.2154 18.0189C78.6048 17.3439 77.9417 16.7138 77.2686 16.1029C76.2527 15.1796 75.2018 14.2972 74.1797 13.3815C73.8431 13.0792 73.5641 12.7104 73.2313 12.403C72.7659 11.9727 72.273 11.5744 71.7963 11.1569C71.2846 10.7086 70.7804 10.2514 70.2687 9.80191C69.9647 9.53552 69.5756 9.33189 69.3616 9.00532C69.0414 8.51609 68.6047 8.35344 68.098 8.27276C67.211 8.1306 66.3402 8.05504 65.4194 8.14853C64.5449 8.23818 63.8593 8.36113 63.2788 9.12314C62.8722 9.65591 62.4293 10.0721 62.2128 10.7893C61.9176 11.7691 62.144 12.654 62.2591 13.5774C62.2704 13.6658 62.3617 13.7516 62.4305 13.8233C63.4039 14.8261 64.8126 15.2884 66.4753 14.9042C66.5729 14.8812 66.6768 14.885 66.7756 14.8645C67.4137 14.7326 67.834 14.3228 68.1343 13.7554C68.4646 13.133 68.337 12.5721 67.9116 12.0329C67.5038 11.9996 67.0884 11.965 66.653 11.9291C66.6142 12.0867 66.6042 12.2199 66.5492 12.3287C66.369 12.686 66.1088 13.0036 65.6996 13.0062C65.288 13.0088 64.9815 12.6924 64.8426 12.3351C64.7426 12.0777 64.7888 11.7332 64.8527 11.4476C64.909 11.2004 65.0291 10.9942 64.9277 10.7125C64.8276 10.432 64.989 10.2258 65.2605 10.1093C65.5608 9.97993 65.8698 9.92229 66.0963 10.1976C66.2964 10.4397 66.5066 10.4205 66.7618 10.3846C66.9595 10.3565 67.1659 10.4013 67.3661 10.3833C68.113 10.3167 68.6648 10.7471 69.2153 11.1543C69.6006 11.4399 69.6031 11.9125 69.6581 12.3479C69.6707 12.4478 69.7257 12.5426 69.7457 12.6425C69.9434 13.6735 69.5981 15.1924 68.4696 15.802C66.5466 16.8393 64.5937 16.9866 62.6307 15.8775C62.4618 15.7828 62.2529 15.7187 62.0614 15.7174C61.2958 15.7098 60.5664 15.565 59.8545 15.2654C59.5705 15.1463 59.2427 15.1373 58.9174 15.0745C58.8411 15.5574 58.7998 15.939 58.7185 16.3117C58.4745 17.4349 58.0053 17.7986 56.9794 17.878C56.2338 17.9356 55.4794 17.65 54.745 17.9587C54.7062 17.9753 54.6486 17.9369 54.5986 17.9356C53.9793 17.9279 53.36 17.9151 52.7394 17.9228C52.6231 17.9241 52.4704 17.9817 52.4004 18.0688C52.0125 18.5439 51.6297 19.0255 51.5909 19.6902C51.5709 20.0321 51.6422 20.3011 52.0476 20.4202C52.6331 19.8362 53.355 19.7683 54.1344 19.9732C54.277 20.0103 54.4359 19.9886 54.5873 19.995C55.3292 20.027 56.0198 20.1896 56.6191 20.6904C56.7968 20.839 57.0733 20.8735 57.3097 20.9401C57.5262 21.0003 57.7639 20.999 57.9666 21.0848C58.5383 21.3269 59.065 21.2116 59.548 20.8851C60.6489 20.1397 61.8412 19.8771 63.1499 20.018C63.8543 20.0936 64.4023 20.2921 64.6963 21.0311C64.8314 21.3717 65.0728 21.7201 65.3594 21.9339C65.9086 22.3451 66.4416 22.7485 66.8632 23.312C67.2097 23.7756 67.6264 24.188 68.028 24.6055C68.5196 25.1178 69.1089 25.5519 69.5105 26.1269C70.2925 27.245 71.5386 27.8956 72.2404 29.0777C72.253 29.0982 72.2805 29.1097 72.2992 29.1263C73.6755 30.3968 75.0504 31.6672 76.4254 32.9377C76.6293 33.126 76.8345 33.3142 77.0309 33.5102C77.7278 34.2081 78.4309 34.901 79.1128 35.6143C79.4806 35.9986 79.8559 36.3892 80.1437 36.8336C80.4439 37.2985 80.1387 37.7967 79.6032 37.789C79.2204 37.7838 78.8463 37.7518 78.6936 37.2716C78.6449 37.1153 78.4835 36.9924 78.3609 36.8669C78.1169 36.6171 77.8279 36.4045 77.6215 36.1266C77.2636 35.6425 76.782 35.4607 76.2365 35.5029C75.8699 35.5311 75.5096 35.6771 75.1543 35.7936C73.6442 36.2906 72.1366 36.7964 70.6002 37.3074L70.599 37.3126ZM76.259 52.558C75.8061 52.3569 75.6998 52.0188 75.5897 51.6243C75.4746 51.2132 75.2143 50.8418 75.0079 50.4589C74.874 50.2117 74.7239 49.9735 74.58 49.7327C74.1221 48.9707 73.997 48.0256 73.3427 47.3673C73.2789 47.3033 73.2413 47.1803 73.2401 47.0855C73.2363 46.6091 72.9398 46.2774 72.7121 45.9099C72.5244 45.6051 72.333 45.3015 72.1591 44.989C71.6912 44.1489 71.6599 43.0898 70.9168 42.3867C70.8817 42.3534 70.8655 42.297 70.848 42.2496C70.36 40.9561 69.8708 39.6639 69.3842 38.3704C69.2641 38.0528 69.0927 37.8223 68.7098 37.9183C68.2269 38.0387 67.7339 38.1271 67.2635 38.2846C65.5483 38.8609 63.813 39.3732 62.1177 40.0174C61.1469 40.3862 60.3887 41.0471 59.5467 41.5965C59.2114 41.8155 58.9061 42.087 58.5621 42.2881C58.0717 42.5737 57.854 43.0782 57.565 43.5201C57.4874 43.6379 57.5062 43.912 57.5912 44.0349C58.0266 44.6625 58.218 45.3656 58.2218 46.1148C58.2268 47.0407 58.2731 47.9833 58.1305 48.89C57.9891 49.7917 57.4924 50.6139 57.3986 51.5488C57.376 51.7716 57.281 52.0047 57.1621 52.1968C56.7054 52.9332 56.1287 53.5928 55.8384 54.4355C55.8021 54.5418 55.6595 54.6084 55.5719 54.6993C55.4656 54.8069 55.3142 54.9016 55.2704 55.0336C55.0252 55.7559 54.5148 56.0146 53.8066 55.9377C53.8154 56.0133 53.8041 56.0709 53.8266 56.1042C54.7312 57.4016 55.3743 58.8142 55.6683 60.3869C55.6908 60.5085 55.7696 60.6199 55.8222 60.7365C56.0774 61.3 56.2938 61.8699 56.3176 62.5064C56.3401 63.0955 56.4052 63.6834 56.4577 64.2712C56.5466 65.2689 56.6429 66.2653 56.7317 67.2629C56.7405 67.3641 56.7267 67.4691 56.7142 67.5728C56.5303 69.1494 56.3426 70.7259 56.1612 72.3037C56.1462 72.4293 56.1675 72.5612 56.18 72.6892C56.215 73.0722 56.2688 73.4538 56.2888 73.838C56.3414 74.8587 56.1162 75.8999 56.524 76.895C56.5578 76.977 56.494 77.0948 56.4965 77.1947C56.504 77.5008 56.5265 77.8056 56.5328 78.1117C56.5365 78.2846 56.5603 78.4729 56.504 78.6265C56.2175 79.4155 56.4615 80.1826 56.5128 81.0086C58.4345 80.9779 60.2799 80.6962 62.1052 80.5245C62.2141 80.0199 62.3905 79.6152 62.3667 79.2246C62.3254 78.5292 62.2216 77.8479 62.5306 77.1832C62.5769 77.0846 62.5243 76.9373 62.5206 76.8131C62.4981 76.0152 62.448 75.216 62.4668 74.4182C62.4781 73.9264 62.7921 73.6177 63.2963 73.596C63.7992 73.5755 64.0594 73.2848 64.3147 72.9082C64.5411 72.5727 64.7626 72.1936 65.0779 71.9669C65.5458 71.6288 65.8047 71.1998 65.9599 70.6645C66.0174 70.4672 66.0575 70.2469 66.1738 70.0894C66.8081 69.2275 67.0971 68.2081 67.4474 67.2194C67.6526 66.6405 67.8128 66.0437 67.7577 65.4059C67.6952 64.6874 67.7214 63.9587 67.6163 63.2492C67.4487 62.1043 67.2147 60.9696 66.987 59.8349C66.9433 59.6159 66.8131 59.4084 66.6968 59.2125C66.3348 58.6054 66.1179 57.9335 66.0462 57.1966C66.0387 57.1224 66.0037 57.0468 65.9686 56.9789C65.5433 56.167 65.258 55.291 64.6387 54.5725C63.9631 53.7874 63.4076 52.8961 62.8008 52.0495C62.7558 51.9868 62.7058 51.9189 62.6907 51.8472C62.6407 51.6077 62.5056 51.3195 62.5856 51.1313C62.727 50.8008 63.1036 50.8303 63.3914 50.9059C63.6203 50.9661 63.858 51.1108 64.0244 51.285C64.5999 51.8894 65.1479 52.5067 65.562 53.2611C66.1976 54.4175 67.1972 55.3422 67.6414 56.7433C70.569 55.4139 73.3339 53.9168 76.2615 52.5631L76.259 52.558ZM50.1021 43.392C51.0004 43.6136 51.7398 43.287 52.4517 42.9937C52.9796 42.776 53.3124 42.9412 53.6653 43.2819C53.8917 43.4996 53.9192 43.7429 53.7216 43.9632C53.5577 44.1463 53.3525 44.3244 53.131 44.4153C52.7369 44.5779 52.3191 44.6868 51.9049 44.7918C51.4908 44.8968 51.0692 45.0364 50.6488 45.039C49.9795 45.0441 49.3051 44.9852 48.6433 44.8827C48.2304 44.8187 47.7463 44.7291 47.4523 44.4665C46.6078 43.7135 45.6019 43.1576 45.0001 42.0972C44.4821 41.1841 43.8103 40.3773 44.058 39.2208C44.063 39.1977 44.0505 39.1708 44.0467 39.1452C43.779 37.3894 44.5147 36.0331 45.6407 34.8126C45.3867 34.8306 45.0939 34.8715 44.8024 34.8677C44.302 34.8626 43.799 34.7921 43.3011 34.8203C42.7293 34.8523 42.1088 34.8408 41.6033 35.0675C40.9277 35.3723 40.3247 35.8654 39.7254 36.3251C39.2763 36.6696 38.6983 36.8835 38.4818 37.5021C38.448 37.5981 38.2754 37.6378 38.1728 37.7121C37.5422 38.1693 37.2169 38.8097 37.1957 39.5883C37.1644 40.8024 37.6298 41.9448 37.7387 43.141C37.7412 43.1705 37.815 43.1935 37.8237 43.1986C38.388 42.931 38.9685 42.7286 39.4689 42.3982C40.0695 42.0012 40.675 42.0998 41.2956 42.2035C41.6609 42.2637 41.8673 42.5506 41.8823 42.9092C41.8986 43.2819 41.6909 43.4919 41.3744 43.5854C41.0604 43.6776 40.7376 43.7647 40.4148 43.7839C39.5515 43.8326 38.936 44.3922 38.2679 44.8379C38.164 44.9071 38.0915 45.0966 38.0852 45.2349C38.0677 45.5897 38.1803 45.9726 38.0877 46.2979C37.8775 47.0407 38.3204 47.6196 38.4068 48.3022C38.697 47.8924 38.921 47.4787 39.235 47.156C39.798 46.5784 40.6087 46.4439 41.2918 46.0751C41.552 45.9342 41.8511 45.7741 42.1288 45.7805C43.1372 45.8023 44.1618 45.7165 45.1402 46.0584C45.3704 46.1391 45.6006 46.2736 45.7795 46.4414C45.9847 46.6335 46.1649 46.8012 46.4514 46.896C46.6403 46.9588 46.8204 47.2444 46.883 47.4659C46.9643 47.7528 46.9556 48.0781 46.9318 48.3829C46.7979 50.0773 45.8146 51.1966 44.4959 52.0739C44.0605 52.3633 43.6689 52.7526 43.0909 52.736C43.0271 52.7347 42.9658 52.8243 42.8957 52.8474C41.7797 53.215 40.6763 53.6888 39.4677 53.2777C39.24 53.2009 39.0098 53.1317 38.7471 53.0485V54.2767C39.2625 54.511 39.8318 54.6545 40.2534 54.9913C40.705 55.3499 41.1504 55.6419 41.7034 55.7661C42.1138 55.8583 42.5216 55.9582 42.932 56.0479C43.5913 56.1926 44.2507 56.3411 44.9125 56.4692C45.0539 56.4961 45.2103 56.4474 45.3592 56.4269C45.5331 56.4026 45.7095 56.3335 45.8771 56.3501C46.4614 56.409 47.0006 56.199 47.5398 56.0517C48.4619 55.7994 49.3602 55.4587 50.2735 55.1693C50.4361 55.1181 50.6188 55.1334 50.7927 55.1155C50.9604 55.0989 51.1493 55.1232 51.2919 55.0528C51.656 54.8709 51.9838 54.9874 52.3141 55.1181C52.6981 55.2718 53.0747 55.4434 53.3838 55.5753C53.5564 55.1386 53.6615 54.7351 53.8629 54.3932C54.3809 53.5159 54.9339 52.6617 55.4869 51.8075C56.2025 50.7022 56.4052 49.4139 56.6679 48.1665C56.818 47.4518 56.8055 46.6514 56.6591 45.9342C56.4039 44.674 55.8359 43.5355 55.0127 42.5301C54.6411 42.0755 54.1244 41.827 53.7441 41.3596C53.101 40.5694 52.2715 39.938 51.4896 39.2093C51.2531 40.6693 51.2731 42.1946 50.1008 43.3907L50.1021 43.392ZM40.2209 76.4263C40.5612 75.4158 40.9315 74.4348 41.2192 73.4295C41.4444 72.6406 41.4945 71.7953 41.7597 71.0256C42.0275 70.2508 41.9887 69.4337 42.2502 68.6538C42.5454 67.7752 42.638 66.8249 42.8357 65.8273C42.5354 65.7927 42.2439 65.7543 41.9524 65.7261C41.6271 65.6954 41.2956 65.7069 40.9778 65.6428C39.9694 65.4405 38.9522 65.2586 37.9639 64.9769C37.1519 64.7463 36.3762 64.3839 35.5179 64.0548C35.0613 64.7246 34.4508 65.3329 33.9803 66.1077C33.4173 67.035 33.002 68.0032 32.6391 69.0047C32.1862 70.2508 32.0324 71.5942 31.4906 72.816C31.4606 72.8839 31.4519 72.9659 31.4468 73.0427C31.4118 73.5998 31.3818 74.1569 31.3468 74.7652C32.0061 74.9458 32.7267 74.9996 33.296 75.33C34.3407 75.9345 35.5092 75.8602 36.6002 76.1715C36.6477 76.1855 36.7015 76.174 36.7515 76.1804C37.3984 76.2765 38.0577 76.3213 38.6857 76.4865C39.1962 76.621 39.6666 76.6376 40.2209 76.425V76.4263ZM55.7183 6.10454C55.4593 6.0277 55.358 5.9611 55.2754 5.97903C54.4409 6.16473 53.6065 6.35299 52.7782 6.56559C52.4429 6.6514 52.0814 6.73336 51.8024 6.92546C51.0517 7.44287 50.3473 8.02046 49.7856 8.76711C49.5504 9.0796 49.3314 9.37288 49.2789 9.78014C49.2038 10.3641 49.1362 10.9558 48.9886 11.5219C48.8447 12.0739 48.9961 12.5106 49.2376 12.9908C49.454 13.4212 49.7568 13.5121 50.1597 13.4878C50.565 13.4634 50.8002 13.2355 50.8853 12.8333C50.9491 12.5336 51.0229 12.2352 51.083 11.9343C51.2081 11.3042 51.1918 10.5959 51.4808 10.0606C51.8449 9.3844 52.1752 8.64928 52.797 8.12676C53.3162 7.69004 53.7841 7.20722 54.5223 7.5799C54.9164 7.09452 55.2804 6.64627 55.7183 6.10582V6.10454ZM57.5975 12.9844C57.5061 12.5362 57.3923 12.1456 57.3535 11.7473C57.3047 11.2414 57.1809 10.683 57.3297 10.2297C57.7814 8.85804 58.4395 7.59399 59.6618 6.74232C60.1297 6.41703 60.5826 6.06612 61.0418 5.72801C60.769 5.56665 60.5126 5.48212 60.2999 5.54872C59.1263 5.91628 58.0229 6.45289 57.012 7.16624C56.7718 7.33657 56.5728 7.5863 56.3964 7.83092C55.5782 8.9733 55.4331 10.277 55.5507 11.6423C55.5757 11.9343 55.7133 12.1097 55.9685 12.225C56.4915 12.4606 57.0082 12.7104 57.5962 12.9857L57.5975 12.9844ZM41.7622 47.5812C41.4119 47.7618 41.0691 47.877 40.8039 48.0896C40.3948 48.4175 39.9006 48.7453 39.6891 49.1949C39.3451 49.9261 39.1061 50.7342 39.1412 51.5821C39.9569 51.7678 40.7701 51.9343 41.5908 51.6756C42.1663 51.4937 42.7406 51.308 43.3011 51.0864C43.5526 50.9865 43.8015 50.8277 43.9929 50.6356C44.1493 50.4781 44.2194 50.2297 44.3495 49.9799C44.1531 49.9197 44.0618 49.8826 43.9679 49.8647C43.8691 49.8454 43.7615 49.8647 43.6689 49.8339C42.8282 49.5496 41.9524 49.305 41.9299 48.1319C41.9261 47.9615 41.8285 47.7925 41.7622 47.5812ZM60.6927 13.6658C60.6227 13.124 60.4875 12.5631 60.4976 12.006C60.5063 11.4502 60.6051 10.879 60.7665 10.3462C60.9342 9.79038 61.1569 9.2256 61.4797 8.75302C61.7862 8.30349 62.2291 7.93722 62.6557 7.59143C63.0848 7.24564 63.569 6.97157 64.0006 6.68469C63.8418 6.70134 63.6378 6.7641 63.4477 6.73464C62.8421 6.64115 62.3167 6.87296 61.8137 7.14703C61.3983 7.37243 60.998 7.64394 60.6352 7.9513C60.3299 8.21 60.0734 8.53658 59.8232 8.85547C59.4316 9.35238 59.0913 9.87107 58.8536 10.4832C58.5446 11.2798 58.9011 11.9522 59.0988 12.6476C59.1689 12.8961 59.4791 13.1074 59.7244 13.2624C59.9846 13.4276 60.2974 13.507 60.6927 13.6658ZM33.1946 58.0547C33.1121 58.3723 33.0508 58.6976 32.9444 59.0075C32.7442 59.5839 33.0157 60.027 33.3573 60.4035C33.6951 60.7749 34.1079 61.0772 34.497 61.3973C34.8073 61.6535 35.1238 61.9045 35.4529 62.135C36.3975 62.7971 37.4484 63.2172 38.5519 63.4977C39.0836 63.6321 39.6153 63.814 40.1771 63.7372C39.6816 63.531 39.1774 63.3773 38.6745 63.221C37.5948 62.8855 36.6227 62.2938 35.8345 61.5152C35.254 60.9414 34.467 60.5201 34.1642 59.6722C33.5925 59.3072 33.4561 58.6989 33.1946 58.0573V58.0547ZM47.72 35.5785C47.441 35.713 47.2458 35.8333 47.0344 35.9038C46.3075 36.1446 45.9747 36.7298 45.7545 37.4099C45.2891 38.8443 45.5393 40.1839 46.29 41.4492C46.3688 41.5811 46.4989 41.681 46.6053 41.795C46.4376 41.2661 46.071 40.8242 46.3288 40.2377C46.3513 40.1864 46.3037 40.0891 46.2662 40.0276C45.9372 39.5051 46.1886 39.0261 46.4013 38.5728C46.7516 37.8274 47.1733 37.1307 47.8851 36.6645C48.0778 36.539 48.2004 36.3008 48.3818 36.0805C48.1341 35.8923 47.9364 35.7411 47.72 35.5772V35.5785ZM49.6592 40.1326C48.6909 40.3312 48.0027 40.0443 47.6049 39.2041C47.7525 39.9124 47.8914 40.481 47.9865 41.0573C48.0778 41.6042 48.3093 42.0588 48.6746 42.452C49.5016 41.8501 49.7768 41.202 49.658 40.1326H49.6592Z" fill="black"/>
<path d="M50.7258 50.4683C50.2191 50.4107 49.7774 50.2173 49.4734 49.7434C49.3183 49.5014 49.267 49.2811 49.4471 49.0352C49.6386 48.7726 49.8663 48.5882 50.2091 48.651C50.3067 48.6689 50.4168 48.6958 50.4918 48.756C51.1086 49.2568 51.6241 48.8495 52.1408 48.5562C52.3572 48.4333 52.5349 48.2399 52.7338 48.0824C53.1592 47.7455 53.6509 47.766 53.9249 48.1285C54.1438 48.4179 54.0963 48.9968 53.7372 49.2401C53.0216 49.7242 52.4248 50.4888 51.4101 50.3441C51.1987 50.3133 50.9672 50.4209 50.727 50.4683H50.7258Z" fill="black"/>
<path d="M48.7895 18.3283C48.5456 17.3409 48.3054 16.397 48.0839 15.4506C48.0088 15.133 47.8412 14.9947 47.5309 14.9101C47.2244 14.8269 46.9066 14.677 46.6652 14.4696C46.0133 13.9099 45.4253 13.2696 44.7622 12.7253C43.9027 12.0196 43.0645 11.2678 41.9785 10.9131C41.5231 10.7645 41.0927 10.4764 40.6311 10.4174C39.5926 10.2868 38.5367 10.1767 37.5133 10.5532C36.8289 10.8055 36.0708 10.9528 35.4878 11.3613C34.627 11.9632 33.8876 12.7509 33.1094 13.4719C32.9643 13.6064 32.8392 13.7934 32.7704 13.9803C32.385 15.0292 31.9159 16.0487 31.7807 17.1821C31.6519 18.263 31.6806 19.3349 31.8395 20.4069C31.8658 20.5836 31.9046 20.7591 31.9184 20.9371C32.0122 22.1166 32.3387 23.2116 33.1882 24.0492C33.6174 24.4718 33.8676 25.043 34.4331 25.3645C35.2188 25.8101 35.9307 26.389 36.6838 26.8974C36.869 27.0217 37.0892 27.0921 37.2931 27.1856C38.3328 27.6607 39.4538 27.6364 40.5535 27.7299C40.7649 27.7478 40.9889 27.6415 41.2041 27.5813C41.7996 27.4136 42.3451 27.1293 42.9957 27.0806C43.5411 27.0409 44.1654 26.818 44.5783 26.462C45.5166 25.6513 46.2948 24.6678 46.6777 23.4344C46.7565 23.1796 46.6564 22.8556 46.7615 22.6212C47.1456 21.7683 46.9592 20.8551 47.0693 19.9766C47.1318 19.4835 47.3032 19.1415 47.6923 18.9046C48.0151 18.7074 48.3617 18.5499 48.7895 18.327V18.3283Z" fill="#4682FE"/>
<path d="M54.4629 16.8979C54.3152 17.1374 54.1839 17.3909 54.0137 17.6138C53.6984 18.0338 53.2693 18.0479 52.9278 17.6573C52.7826 17.4895 52.6625 17.3013 52.3823 17.154C52.376 17.3961 52.3723 17.6381 52.3635 17.8789C52.3447 18.3924 52.1708 18.678 51.808 18.7895C51.4164 18.9111 50.9935 18.7049 50.7446 18.2695C50.6045 18.0249 50.4693 17.779 50.2429 17.3717C50.2304 17.7418 50.1878 17.9468 50.2241 18.1376C50.3255 18.6614 50.4581 19.1788 50.5757 19.6975C50.6783 20.1636 50.4768 20.5978 50.084 20.7617C49.7625 20.8962 49.4709 20.7143 49.2307 20.2302C49.1982 20.1662 49.1494 20.1086 49.1119 20.0497C48.7416 20.0292 48.679 20.3045 48.6552 20.5543C48.5864 21.2676 48.5439 21.9861 48.4976 22.702C48.4901 22.8288 48.5526 22.9709 48.5164 23.0811C48.2574 23.8328 48.096 24.6512 47.6819 25.2992C47.2878 25.914 47.0375 26.7131 46.2694 27.0359C46.1643 27.082 46.1017 27.2241 46.0104 27.3151C45.4324 27.8862 44.8093 28.314 43.9661 28.4433C43.2304 28.5535 42.5348 28.9467 41.7992 29.0619C40.782 29.2207 39.7436 29.2732 38.7127 29.2912C38.3574 29.2976 38.0008 29.0491 37.6367 28.9454C36.9399 28.7481 36.2342 28.5663 35.6012 28.2064C35.2071 27.9849 34.8505 27.6852 34.504 27.3906C33.8471 26.8335 33.0402 26.4762 32.4884 25.7821C32.0781 25.2672 31.5276 24.8215 31.2698 24.2388C30.8695 23.341 30.3841 22.4471 30.3378 21.4123C30.2977 20.535 30.2327 19.6578 30.1614 18.7818C30.1413 18.5333 30.06 18.2913 30.0062 18.0454C29.9937 17.8379 29.9799 17.633 29.9674 17.4268C30.2164 16.6174 30.4604 15.808 30.7156 15.0012C31.0572 13.9164 31.5588 12.9572 32.3245 12.0837C32.7949 11.5458 33.3855 11.1591 33.8221 10.6045C33.8546 10.5648 33.8884 10.52 33.9309 10.4969C35.3359 9.70675 36.7109 8.83716 38.3849 8.75648C39.2444 8.71549 40.1077 8.60791 40.9359 8.89863C42.0444 9.28925 43.1704 9.61454 44.1625 10.3266C45.022 10.9413 45.9015 11.5151 46.6247 12.2963C46.8123 12.5012 46.9537 12.7471 47.1301 12.9623C47.2377 13.0904 47.3703 13.1967 47.583 13.399C47.6618 13.0737 47.7006 12.8573 47.7669 12.6472C47.9534 12.0632 48.4438 11.9121 48.8742 12.3488C49.1569 12.6344 49.3634 13.0007 49.586 13.3426C49.7212 13.5476 49.825 13.7717 50.0815 13.9446C50.0577 13.5745 50.0477 13.1992 50.0089 12.8291C49.9726 12.4923 50.0127 12.2169 50.3567 12.0607C50.8009 11.8596 51.2275 11.8647 51.4802 12.1721C51.7029 12.441 51.8668 12.7676 52.0282 13.0827C52.1783 13.3747 52.2909 13.6846 52.4386 13.9766C52.2121 12.5409 52.7201 12.2874 53.6096 12.6127C53.6546 12.5922 53.7122 12.5832 53.7435 12.5512C54.4466 11.7751 54.7118 11.9723 55.2098 12.6754C55.3249 12.8393 55.4337 13.0289 55.4788 13.2261C55.6764 14.0893 55.9154 14.9525 56.018 15.8298C56.1456 16.9043 55.42 17.3692 54.4629 16.8953V16.8979Z" fill="white"/>
<path d="M46.7083 18.8861C45.7558 19.7263 44.7738 20.5361 43.7782 21.3264C41.7 22.9742 39.5346 24.5146 37.2969 25.9605C36.9541 26.1798 36.3115 26.0593 36.3002 25.5741C36.2459 23.2011 35.678 20.7217 35.8692 18.2185C35.9744 16.8551 35.9529 14.7296 37.3127 13.8915C38.5843 13.1089 39.7745 14.0088 39.9668 15.2767C40.1003 16.1581 40.063 17.0765 39.9136 17.9775C40.8775 17.1558 41.9885 16.4936 43.1979 16.0366C44.4468 15.5665 47.3057 14.6634 47.9222 16.4675C48.265 17.4716 47.4075 18.2706 46.7095 18.8861H46.7083Z" fill="#F4B0D7"/>
</svg>
